<?xml version="1.0" standalone="no"?>
<!DOCTYPE svg PUBLIC "-//W3C//DTD SVG 1.1//EN" "http://www.w3.org/Graphics/SVG/1.1/DTD/svg11.dtd">
<svg xmlns="http://www.w3.org/2000/svg">
  <defs>
    <font id="Merriweather" horiz-adv-x="1126">
      <font-face font-family="Merriweather Light 18pt" units-per-em="2000" panose-1="0 0 0 0 0 0 0 0 0 0" ascent="1968" descent="-546" alphabetic="0" />
      <glyph unicode=" " glyph-name="gid178" horiz-adv-x="474" />
      <glyph unicode="!" glyph-name="gid188" horiz-adv-x="577" d="M400,1793L344,476H217L156,1793H400ZM148,106q0,63 46.5,103.5T299,250q67,0 99.5-38T431,124q0-66-45.5-105T276-20q-49,0-88.5,34T148,106Z" />
      <glyph unicode="&quot;" glyph-name="gid221" horiz-adv-x="991" d="M477,1652L264,983H161l71,669H477Zm387,0L651,983H548l71,669H864Z" />
      <glyph unicode="#" glyph-name="gid195" horiz-adv-x="1423" d="M356,413H128l21,153H381l63,391H202l21,151H468l68,432H654l-68-432H937l70,432h119l-70-432h239l-21-151H1035L970,566h250l-21-153H945L882,0H764l63,413H475L410,0H292l64,413ZM852,566l64,391H563L498,566H852Z" />
      <glyph unicode="$" glyph-name="gid237" horiz-adv-x="1321" d="M577-252l2,232Q490-14 411,2.5t-137.5,35T189,67l15,344H330l43-248q26-23 65.5-40.5t91.5-27T645,86q98,0 164,28.5T908,199t33,138q0,60-29,107t-80.5,87t-119,76.5T570,683q-82,44-149.5,87.5T305,866T231.5,984T206,1138q0,100 52,176.5T399.5,1439T603,1500v220H746V1502q77-4 141.5-18t111-30t71.5-26l-10-321H938l-45,233q-30,24-81,41.5T683,1398q-75,0-137.5-23.5t-99-72.5T410,1177q0-83 46.5-141t120-102T730,845q93-51 170.5-97t134-97T1122,536t31-152q0-106-48.5-192.5T959,49.5T719-19l-2-233H577Z" />
      <glyph unicode="%" glyph-name="gid254" horiz-adv-x="2071" d="M637,0l642,1502h152L791,0H637ZM464,641q-112,0-192,56T149.5,846T107,1049q0,135 54,230t143,144.5T498,1473q127,0 206-55t115.5-148.5T856,1061q0-136-55-229.5t-144.5-142T464,641Zm13,106q95,0 145,83t50,223q0,89-19.5,160t-61,112.5T486,1367q-94,0-143.5-84T293,1058q0-81 20-152.5t61-115T477,747ZM1571,40q-112,0-192,56T1256.5,245T1214,448q0,136 54.5,230.5t143.5,144T1606,872q126,0 204.5-55.5t116-149T1964,460q0-136-55.5-229.5t-145-142T1571,40Zm12,106q95,0 146,83.5T1780,452q0,88-20,159t-61,113t-105,42q-95,0-145-84t-50-223q0-82 20.5-153.5T1481,190t102-44Z" />
      <glyph unicode="&amp;" glyph-name="gid224" horiz-adv-x="1519" d="M1479,815V702l-150-23q0-93-25-176.5t-65-152T1154,234q29-29 59.5-52.5t63-41t68-28.5T1420,99V10q-14-8-42-13t-57-7.5T1277-13q-73,0-131,33t-126,91Q936,42 830.5,12T633-18Q477-18 360,27.5T178,159T113,368q0,85 43.5,157T275,653t169,90q-67,86-121,184t-54,212q0,95 48.5,178.5t142.5,135T689,1504q110,0 185-40.5T987.5,1356t38.5-148q0-104-40.5-181.5T868,885T682,758q66-86 127.5-161.5t125-145T1070,314q40,52 63.5,115T1165,557t3,122l-135,23V815h446ZM469,1164q0-76 25-137t60.5-108.5T622,833q82,57 131,109.5T824,1056t22,144q0,44-16,94t-53,85.5T678,1415q-72,0-118-34t-68.5-91.5T469,1164ZM663,94q67,0 139.5,24T933,183q-52,46-108,105T713.5,413t-108,131.5T506,668q-92-49-144.5-120T309,383q0-77 43.5-143T476,134T663,94Z" />
      <glyph unicode="&apos;" glyph-name="gid222" horiz-adv-x="604" d="M477,1652L264,983H161l71,669H477Z" />
      <glyph unicode="(" glyph-name="gid205" horiz-adv-x="860" d="M134,668q0,176 40.5,322.5t104,262t133,200t129,136T632,1657l84-58q-25-16-70-61.5T549,1417T449,1237.5T369.5,999T335,701q-5-182 24-331.5t77.5-266T540-97T644-233t77-73l-89-63q-27,16-85,63.5T418.5-176T283,25.5t-107,279T134,668Z" />
      <glyph unicode=")" glyph-name="gid206" horiz-adv-x="860" d="M727,622q0-176-41-322.5T581.5,37.5T449-162.5t-129-136T228-367l-84,58q26,16 70.5,61.5t97,120.5t100,179.5T491,291t35,298q4,182-25,331.5t-77.5,266T320,1387T216.5,1523T139,1596l89,63q27-16 85.5-63.5T442,1466t135-201.5t107.5-279T727,622Z" />
      <glyph unicode="*" glyph-name="gid194" horiz-adv-x="1288" d="M556,620l22,280l37,190L473,957L248,794L154,953l249,121l187,61l-187,56L151,1308l90,159l228-160l148-129l-46,189l-28,279H732l-23-276l-40-189l142,131l228,162l92-157L885,1196l-189-61l189-57l252-114l-95-164L819,960L669,1089l44-189l31-279l-188-1Z" />
      <glyph unicode="+" glyph-name="gid242" horiz-adv-x="1338" d="M584,171V403l6,166l-174-6H218V721H416l174-11l-6,170v234H753V880l-8-170l150,11h225V563H895l-150,6l8-166V171H584Z" />
      <glyph unicode="," glyph-name="gid184" horiz-adv-x="509" d="M152-466L83-420v19q33,27 65.5,75.5t54.5,110T225-90q0,39-15.5,60.5t-36,38T137.5,48T122,112q0,59 39,100.5T252,254h9q39,0 71.5-23.5t52-70.5T404,42q0-94-26.5-178t-67-152t-83-114.5T154-466h-2Z" />
      <glyph unicode="-" glyph-name="gid201" horiz-adv-x="1161" d="M981,716V569H180V716H981Z" />
      <glyph unicode="." glyph-name="gid183" horiz-adv-x="509" d="M245-20q-51,0-88.5,35T119,108q0,63 44.5,104.5T266,254q63,0 94.5-39T392,126q0-66-43.5-106T245-20Z" />
      <glyph unicode="/" glyph-name="gid196" horiz-adv-x="782" d="M709,1562L244-354H73L538,1562H709Z" />
      <glyph unicode="0" glyph-name="gid131" horiz-adv-x="1291" d="M631-19Q496-19 396,39.5t-165,163T135,447T104,750q1,240 75.5,408.5t201.5,257T666,1504q138,0 236.5-54.5t161.5-155t93.5-238.5T1187,751q-1-237-71-409.5T921,75T631-19ZM644,85q113,0 180,73t96.5,217.5T950,735q0,161-17.5,285t-53,209T787,1357.5T649,1401q-82,0-140.5-39t-96-118t-55-199T340,762q0-152 17.5-276T412,272t95-138.5T644,85Z" />
      <glyph unicode="1" glyph-name="gid132" horiz-adv-x="906" d="M392,116V1273q-26-11-78-25.5t-108.5-27T110,1202L87,1318q71,15 145.5,43.5t140.5,66T486,1505h2l120-20V117L850,99V0H130V99l262,17Z" />
      <glyph unicode="2" glyph-name="gid133" horiz-adv-x="1189" d="M55,84q99,61 201.5,147t197,188t169,210t118,214.5T784,1045q0,105-37,171t-103,97.5T493,1345q-91,0-157-31t-111-72t-74-74l-90,81q28,42 72,86t105.5,82.5t139.5,62T550,1503q143,0 244-53.5t155-147t54-213.5q0-103-42-212.5t-114-218t-163.5-209T492.5,264T297,118l623,45l69,169l103-21L1042,0H86L55,84Z" />
      <glyph unicode="3" glyph-name="gid134" horiz-adv-x="1145" d="M314-29q-46,0-101.5,6.5T117-5V109q35-10 78-14.5T274,90q163,0 276.5,49.5T723,271.5T782,455q0,88-35,149T638,697.5T447,733q-10-4-37-11t-53.5-14T321,699L286,805q40,8 80.5,20.5T444,853q81,33 144.5,73T689,1019t38,126q0,81-32,128t-89.5,67T474,1360t-136.5-15.5t-112.5-41T139,1249l-54,92q32,33 98,70.5t156.5,64T535,1502q113,0 207-32.5t150.5-103T949,1181q0-74-32-135.5T830.5,936t-122-84T571,791q136,12 237-26T965.5,653T1023,483q1-111-48.5-204.5t-142-162t-224-107T314-29Z" />
      <glyph unicode="4" glyph-name="gid135" horiz-adv-x="1232" d="M730,0V304H104L52,394q60,102 117,212.5t110.5,225t104,229t98.5,223T575,1490h57l162-83L335,547L244,414l486,31l8,394l179,14V455l273,14V304H917V0H730Z" />
      <glyph unicode="5" glyph-name="gid136" horiz-adv-x="1169" d="M159,90q29-3 60.5-4.5T278,84q147,0 266,57T732.5,292T802,500q0,100-34,164T667,759T500,790q-45,0-99-8.5T295.5,758T207,725l-61,39l99,722H856l20,38h125l-36-208H399L308,854q31,18 81.5,37t110,31.5T620,935q130,0 222.5-46.5T984,753.5T1033,539q0-118-52-220.5T832,138T600,16T299-28q-22,0-45.5,1T206-23t-47,9V90Z" />
      <glyph unicode="6" glyph-name="gid137" horiz-adv-x="1209" d="M611-28Q486-28 391.5,19.5T233,151.5T136.5,349T104,592q0,178 61,339t169.5,291T585,1439.5T888,1558l46-89q-128-42-223.5-108t-164-149.5T432,1030.5T357,827q45,51 125.5,96T678,968q146,0 246-62t151-169.5T1126,491q0-107-34.5-201t-101-165.5T828,12.5T611-28Zm34,874q-89,0-152.5-28T389,752.5T332,685q-2-18-3.5-44T327,555q0-73 10-143.5t32-131t56.5-107t83.5-73T623,74q95,0 157,53t93,138t31,183q0,139-33,226.5T779.5,804T645,846Z" />
      <glyph unicode="7" glyph-name="gid138" horiz-adv-x="1140" d="M599-1L342,0q96,223 190.5,448.5T717,898.5T890,1342l-603-8l-84-269L75,1089l44,397h922l42-53L599-1Z" />
      <glyph unicode="8" glyph-name="gid139" horiz-adv-x="1191" d="M589-19Q500-19 413,2.5t-158.5,67T140,188T97,364q0,75 33.5,146.5t102,133T406,751q-68,43-123.5,94.5T193,965t-34,162q0,123 65.5,207t169,127.5T613,1505q128,0 224.5-41.5t150-116.5t53.5-175q0-115-69-212T773,794q87-49 160-106.5T1050,556t44-174q0-91-40-165T944,90T783,9T589-19ZM604,82q70,0 134,31.5T842.5,203T883,340q0,89-57,149.5T679.5,599T492,701q-59-31-105.5-76.5T313,522.5T286,402q0-98 38-169.5t109-111T604,82Zm75,762q88,48 140,121t52,162t-32.5,152.5t-91.5,97T607,1410q-71,0-130.5-28.5t-96-81.5T344,1174q0-78 48-135T516.5,936T679,844Z" />
      <glyph unicode="9" glyph-name="gid140" horiz-adv-x="1211" d="M600,1505q131,0 226.5-46t158-127t92.5-188.5T1107,913q0-206-65.5-379.5T864.5,228T613.5,13T325-95L280-6Q400,33 495,97T660.5,245t118,183.5T851,636q-30-35-76.5-67t-107-53T537,495q-105,0-189,34.5t-143.5,98T114,779T83,976q0,105 34,200t100,169t162.5,117T600,1505ZM575,618q77,0 139,26t104,63.5T876,777q1,15 2.5,31.5T881,841t1,31q0,83-7.5,161T848,1178t-52.5,117.5t-85,78.5T586,1402q-97,0-159.5-57T334,1199.5T304,1019q0-145 35-233t96.5-128T575,618Z" />
      <glyph unicode=":" glyph-name="gid185" horiz-adv-x="514" d="M248,789q-53,0-91,35.5T119,917q0,64 45.5,105.5T269,1064q64,0 96-39t32-90q0-66-44-106T248,789Zm0-809q-53,0-91,35t-38,93q0,63 45.5,104.5T269,254q64,0 96-39t32-89q0-66-44-106T248-20Z" />
      <glyph unicode=";" glyph-name="gid186" horiz-adv-x="514" d="M246,789q-53,0-91,35.5T117,917q0,64 46,105.5T267,1064q65,0 96.5-39T395,935q0-66-43.5-106T246,789ZM144-466L75-420v19q33,27 65.5,75.5t54.5,110T217-90q0,39-15.5,60.5t-36,38T129.5,48T114,112q0,59 39,100.5T244,254h9q39,0 71.5-23.5T377,160T397,42q0-94-27-178T302.5-288T220-402.5T146-466h-2Z" />
      <glyph unicode="&lt;" glyph-name="gid248" horiz-adv-x="1338" d="M1110,16L164,507V619l946,493V937L354,564l756-374V16Z" />
      <glyph unicode="=" glyph-name="gid246" horiz-adv-x="1338" d="M1121,990V845H217V990h904Zm0-550V294H217V440h904Z" />
      <glyph unicode="&gt;" glyph-name="gid247" horiz-adv-x="1338" d="M228,54V228L984,602L228,975v175l946-493V545L228,54Z" />
      <glyph unicode="?" glyph-name="gid190" horiz-adv-x="962" d="M335,484q-21,47-36.5,95.5t-24,94T266,759q0,55 24,95t65,71.5t93.5,63T559,1059q30,22 64,60.5t58,89T705,1315q0,88-43.5,169T528,1617t-231,52q-45,0-94-8t-79-22L92,1765q22,12 62,22.5t89.5,17.5t100.5,7q154,0 259.5-40t169-108t92-152T893,1340q0-93-35.5-163t-90-124t-114-97.5T544,871.5T470,788q-5-10-10-28.5T455,724q0-63 8-124t14-116H335ZM401-20q-50,0-89.5,34T272,106q0,63 47,103.5T423,250q67,0 100-38t33-88q0-66-45.5-105T401-20Z" />
      <glyph unicode="@" glyph-name="gid223" horiz-adv-x="2040" d="M141,350q0,207 53,386.5t150.5,324t229.5,247t290.5,158T1198,1521q205,0 366-83.5T1818,1189t93-408q0-160-40-288.5T1765.5,268T1624,108T1475,11.5T1348-21q-51,0-95.5,44T1203,151q-2,46 4,115t24,169q-43-114-103.5-220T994,41T842-27q-67,0-130,47.5T608,157T567,371q0,107 34.5,221.5T702.5,805T864,964.5t214,61.5q53,0 117.5-14T1311,969q6,18 18,35.5t30,12.5q18-4 36-11t37.5-14t39.5-15q-10-49-26-128t-32-171t-29-183.5T1367,329q-8-110 7-158.5t36-48.5q57,0 121.5,42t121,121.5t92,192.5T1780,732q0,182-53.5,308.5t-146,204t-208,112.5T1132,1392q-172,0-324.5-71T539,1117T357,798.5T291,384q0-190 48.5-333.5T474-189T675-333.5T924-382q74,0 154,12.5t148.5,34T1335-287l34-75q-51-42-126.5-74.5t-165.5-51T890-506q-173,0-311,59.5t-236,172T193-4T141,350Zm605,70q0-59 13-122.5T802.5,190T884,146q47,0 105,63.5T1104,376t98,222q14,37 25.5,76t20.5,76.5t14,70.5q-18,19-59.5,36T1115,884.5T1036,895q-69,0-123.5-40.5T821,745.5t-56-153T746,420Z" />
      <glyph unicode="A" glyph-name="gid1" horiz-adv-x="1410" d="M111,118L607,1498H834L1299,118l125-19V0H895V99l162,19L964,413H384L289,119L461,99V0H-13l-1,99l125,19ZM927,531L730,1178l-44,165l-50-170L420,531H927Z" />
      <glyph unicode="B" glyph-name="gid10" horiz-adv-x="1339" d="M246,118V1361L83,1384v102H352q61,0 113.5,4t102,7.5T667,1501q145,0 243.5-23t158.5-67t86.5-106t26.5-141q0-93-36.5-171t-105-130.5T876,793q128,2 220-40t141-121t49-186q0-91-30-173T1156,127T967.5,25.5T671-12q-56,0-102,3T472-3T347,0H79V99l167,19ZM460,831q20-1 50-2t62.5-0.5T634,829t48,0q94,0 157,35t95,102t32,161q0,136-69.5,203.5T648,1398q-39,0-75.5-2.5T507,1390t-47-4V831Zm0-719q23-7 59-10.5T594.5,97T666,96q140,0 224.5,39T1012,246.5T1049,419q0,154-78.5,223T716,711q-26,0-61,0t-73,0t-70-0.5T460,709V112Z" />
      <glyph unicode="C" glyph-name="gid11" horiz-adv-x="1309" d="M747-22Q580-22 451.5,31T235,182.5t-132.5,238T58,733q0,171 54.5,313T265,1291t229,159t285,56q69,0 131.5-7.5T1028,1481t101.5-19t81.5-14l-19-363H1059l-50,254q-16,14-51.5,27t-89,21.5T744,1396q-126,0-225.5-72.5T361,1110.5T303,765q0-139 27.5-261.5t83-216T554.5,141T756,88q76,0 125.5,9t81,25.5T1017,158l85,204l124-16L1179,54q-42-2-81.5-14T1012,13.5t-110-25T747-22Z" />
      <glyph unicode="D" glyph-name="gid13" horiz-adv-x="1504" d="M678-16q-37,1-77.5,3.5T518-7T435-2T354,0H79V99l167,19V1361L89,1385v101H352q62,0 119.5,4t115,7.5T705,1501q192,0 330.5-50T1263,1308t131.5-224T1437,790q0-182-54.5-331.5t-155-257T987.5,37T678-16ZM698,96q148,2 262,75t179,218t65,361q0,156-33,276t-101,201.5T898.5,1351T655,1393q-41,0-77-3t-65.5-6t-52.5-4V112q40-8 79.5-12T618,95.5T698,96Z" />
      <glyph unicode="E" glyph-name="gid15" horiz-adv-x="1269" d="M246,118V1361L82,1385v101H1110l28-311H1024l-64,195l-497,12V821l331,6l29,165H934V533H823L795,705l-332,5V112l558,20l114,257l117-35L1191,0H80V99l166,19Z" />
      <glyph unicode="F" glyph-name="gid20" horiz-adv-x="1231" d="M250,118V1361L79,1385v101H1149l20-341H1040l-63,223l-511,14V802l360,6l36,167H967V506H862L826,680l-360,8V118L777,99V0H90V99l160,19Z" />
      <glyph unicode="G" glyph-name="gid21" horiz-adv-x="1448" d="M759-22Q591-22 459.5,35t-222,159T99.5,431T52,721q0,188 53,334t151,245.5t237,151T803,1503q78,0 154-8.5t142.5-20.5t116.5-21.5t76-11.5l-18-348H1130l-47,240q-14,11-51,26t-98.5,26T788,1396q-155,0-264-70.5T358,1115T301,767q0-135 26.5-257.5t83.5-218T558.5,140T777,84q64,0 119.5,11T1000,126t90,45V616L839,637V753h584V637l-116-20V80q-39-1-81-12t-90-26T1031.5,12.5T907-12T759-22Z" />
      <glyph unicode="H" glyph-name="gid22" horiz-adv-x="1609" d="M239,118V1361L83,1385v101H624V1385l-170-24V823h702v538l-169,24v101h539V1385l-155-24V118l159-19V0H988V99l168,19V699H454V118L629,99V0H79V99l160,19Z" />
      <glyph unicode="I" glyph-name="gid23" horiz-adv-x="746" d="M264,118V1361L79,1385v101H667V1385l-187-24V118L667,97V0H80V99l184,19Z" />
      <glyph unicode="J" glyph-name="gid28" horiz-adv-x="746" d="M-28-273q55,16 107,50.5T171-136T233-16q17,52 25.5,112t12,149T274,470v889L81,1385v101H671V1385l-182-25V550q0-173-1.5-299T466,38Q441-74 375.5-156t-157-133T25-358l-53,85Z" />
      <glyph unicode="K" glyph-name="gid30" horiz-adv-x="1437" d="M79,0V99l167,19V1361L82,1385v101H626V1385l-165-24V664l586,697l-168,24v101h495V1385l-155-24L787,878q50-43 104.5-113.5t110-154t108-168T1208,287t81-116.5t55-50.5l94-22V0H1151q-24,0-57,40t-72.5,106t-84,147t-91,163.5t-93,155T663,733L461,504V118L642,98V0H79Z" />
      <glyph unicode="L" glyph-name="gid31" horiz-adv-x="1243" d="M79,0V99l166,19V1361L82,1385v101H658V1385l-197-24V119l507,17l123,336l116-18L1138,0H79Z" />
      <glyph unicode="M" glyph-name="gid32" horiz-adv-x="1981" d="M179,118L340,1361l-229,24v101H655L925,587l65-254l61,254l276,899h534V1385l-227-24L1794,120l174-21V0H1391V99l182,19l-94,898l-38,386l-83-289L1027,68H891L577,1026L469,1403l-41-387L335,118L531,99V0H13V99l166,19Z" />
      <glyph unicode="N" glyph-name="gid33" horiz-adv-x="1547" d="M69,0V99l159,21V1361q-26,5-53,8.5t-53,7.5t-53,8v101H447l658-976l114-211V1361l-175,24v101h472V1385l-160-24V0H1197L520,996L365,1262V118L556,99V0H69Z" />
      <glyph unicode="O" glyph-name="gid35" horiz-adv-x="1444" d="M709-22Q495-25 352,71.5T138,340T67,735q0,176 50,317.5T258.5,1295t214,154.5T739,1503q212,0 353.5-92t213-259.5T1377,759q0-175-50-318T1187,195.5T975,36.5T709-22Zm9,105q126,0 219.5,76t146,226.5T1136,759q0,200-48,343T947.5,1321.5T723,1398q-125,0-218.5-73t-145-220T308,735q0-199 48-345.5T495.5,163T718,83Z" />
      <glyph unicode="P" glyph-name="gid43" horiz-adv-x="1281" d="M245,118V1361L89,1385v101H355q60,0 106.5,3.5t101,6.5t138.5,3q203,0 318-50.5t163-146t48-230.5q0-164-74-280.5t-205-178T651,552q-35,0-76.5,1t-73,3T461,559V120L734,99V0H79V99l166,19ZM461,669q25-4 74.5-6T652,661q93,0 173,37T954.5,824t49.5,246q0,117-38,188T850,1360.5T653,1392q-44,0-78.5-2.5t-62-5.5t-51.5-4V669Z" />
      <glyph unicode="Q" glyph-name="gid45" horiz-adv-x="1444" d="M1377-366q-83,0-146,32.5t-115.5,82T1013-149.5t-106,95T781,4L914,46q78-7 136.5-35t107-64.5T1254-125t102-58t125-23q25,0 38.5,1.5T1544-202l23-87q-38-40-87.5-58.5T1377-366ZM709-22Q495-25 352,71.5T138,340T67,735q0,176 50,317.5T258.5,1295t214,154.5T739,1503q212,0 353.5-92t213-259.5T1377,759q0-175-50-318T1187,195.5T975,36.5T709-22Zm9,105q126,0 219.5,76t146,226.5T1136,759q0,200-48,343T947.5,1321.5T723,1398q-125,0-218.5-73t-145-220T308,735q0-199 48-345.5T495.5,163T718,83Z" />
      <glyph unicode="R" glyph-name="gid46" horiz-adv-x="1396" d="M79,0V99l164,19V1362L88,1388v98H350q69,0 126.5,4t106,7.5T676,1501q195,0 310-45t165.5-132.5T1202,1107q0-90-34-175.5T1068.5,781T906,686q44-22 84-70.5t76.5-111T1136,377t63-121.5t57-93.5t51-43l77-21V0H1119q-25,0-54,42.5t-62,111t-68.5,147T861.5,453t-75,128T711,652q-22,0-58,0t-75,0t-71.5,0.5T459,653V118L656,99V0H79ZM695,759q83,0 146,36.5t98,111T974,1094q0,90-30,157.5T840.5,1356T637,1393q-28,0-58-2t-60.5-4.5T459,1382V762q29-2 76.5-3t93-0.5T695,759Z" />
      <glyph unicode="S" glyph-name="gid47" horiz-adv-x="1188" d="M576-22Q463-22 374.5-0.5t-150,44T130,69l16,361H274l36-260q20-20 60.5-39T466,99.5T583,87q109,0 177,31.5T859.5,208T891,344q0,82-46,138.5t-125,100T539,668q-61,27-129.5,63.5t-129,89T182,945.5T144,1117q0,111 59,198t169,137.5T637,1503q73,0 134-9.5t110-23t85-24.5t58-15l-12-336H889l-39,247q-12,12-44,24.5T728.5,1388t-99.5,9q-95,0-157-26t-92-76t-30-122q0-87 45-142.5T519.5,933T701,843q70-32 142-71t133.5-89.5t99-118T1113,407q0-77-31-153.5T986,115T819,15.5T576-22Z" />
      <glyph unicode="T" glyph-name="gid49" horiz-adv-x="1390" d="M584,118V1379l-337-11L173,950H43l36,536H1313l34-536H1217l-71,418l-340,11V118l274-19V0H314V99l270,19Z" />
      <glyph unicode="U" glyph-name="gid50" horiz-adv-x="1480" d="M763-16Q566-16 439.5,53t-188,211.5T190,627v734L48,1385v101H583V1385l-171-25V606q0-142 26.5-240t76-158T633,121T788,94q123,0 203.5,58.5t120.5,170T1152,593v766l-168,26v101h466V1385l-146-24V605q0-163-40.5-280.5T1150,131.5T978,20T763-16Z" />
      <glyph unicode="V" glyph-name="gid55" horiz-adv-x="1328" d="M-39,1385v101H496V1385l-179-24L627,440l69-244l74,248l314,917l-159,24v101h447V1385l-128-24L749,0H576L83,1361l-122,24Z" />
      <glyph unicode="W" glyph-name="gid56" horiz-adv-x="1993" d="M-39,1385v101H504V1385l-188-24L585,431l58-272l65,272l229,761l-55,169l-141,24v101h562V1385l-196-24l270-930l68-294l57,294l251,930l-199,24v101h478V1385l-132-24L1502,0H1304L999,991L703,0H512L95,1359l-134,26Z" />
      <glyph unicode="X" glyph-name="gid57" horiz-adv-x="1434" d="M185,118L606,741L192,1359L42,1385v101H639V1385l-190-26L760,855l312,506l-176,24v101h492V1385l-160-26L822,779l445-661l154-19V0H826V99l185,19L672,663L347,118L547,99V0H13V99l172,19Z" />
      <glyph unicode="Y" glyph-name="gid58" horiz-adv-x="1287" d="M531,118V579L94,1360l-120,25v101H497V1385l-158-24L611,826l66-152l70,152l275,535l-164,24v101h456V1385l-129-23L755,581V120L979,99V0H313V99l218,19Z" />
      <glyph unicode="Z" glyph-name="gid60" horiz-adv-x="1293" d="M108,0L54,89L835,1243l116,146l-596-22L253,1102l-115,15l44,375h970l46-87L428,257L298,106l698,36l104,314l118-26L1171,0H108Z" />
      <glyph unicode="[" glyph-name="gid209" horiz-adv-x="870" d="M386-274q-66,0-108,14t-61.5,56T197-79V1413q0,83 19.5,125t61.5,56t108,14q83,0 147-11.5T656,1572v-84H382V-152H656v-85q-63-15-126.5-26T386-274Z" />
      <glyph unicode="\" glyph-name="gid197" horiz-adv-x="862" d="M775-354H604L59,1562H230L775-354Z" />
      <glyph unicode="]" glyph-name="gid210" horiz-adv-x="864" d="M484-274q-79,0-143,11T214-237v85H488V1488H214v84q59,13 123,24.5T484,1608q66,0 106.5-14t58.5-56t18-125V-79q0-83-18-125t-58.5-56T484-274Z" />
      <glyph unicode="^" glyph-name="gid252" horiz-adv-x="1331" d="M754,1496L1158,266H981L664,1275L345,266H173L573,1496H754Z" />
      <glyph unicode="_" glyph-name="gid204" horiz-adv-x="1000" d="M1010-89l-1-79H-10l2,79H1010Z" />
      <glyph unicode="`" glyph-name="gid280" horiz-adv-x="833" d="M572,1289q-38,17-95,57.5T359.5,1439t-109,102.5T180,1627l151,128l322-399l-79-67h-2Z" />
      <glyph unicode="a" glyph-name="gid62" horiz-adv-x="1072" d="M378-22q-90,0-166,35T89.5,119.5T43,300q0,101 54.5,171.5T246,585t213,64t248,23v71q0,90-19.5,142T619,959T479,981q-117,0-204.5-37T139,881L88,986q20,18 86.5,53.5t160.5,65T532,1134q141,0 223.5-40.5t118-127T909,741V102h118V13q-22-5-58.5-12t-77-12.5T817-17q-52,0-74,16T721,74v64q-25-25-74-63T529.5,7.5T378-22Zm87,137q53,0 121.5,31.5T707,223V567q-150-1-247-33T315.5,447.5T268,324q0-75 26-121t70.5-67T465,115Z" />
      <glyph unicode="b" glyph-name="gid70" horiz-adv-x="1196" d="M-6,1515v86l321,37h4l46-31V1006q34,33 82,64t110,50.5T692,1140q114,0 213.5-56t161-176T1128,595q0-129-40-241T972.5,157.5t-183-132T549-22Q446-22 362-8T224,24T157,54V1494L-6,1515ZM609,997q-55,0-102.5-18.5t-84-45T365,884V149q13-30 71.5-46.5T562,86q102,0 178,55T858.5,302.5T902,565q3,153-37,248T757.5,952.5T609,997Z" />
      <glyph unicode="c" glyph-name="gid71" horiz-adv-x="1011" d="M570-22Q402-22 290,52.5t-167.5,203T66,544q-1,123 35,231T208,965t176,128.5T627,1140q68,0 125.5-11t101-25.5T925,1080L915,772H786L741,975q-3,17-27,29.5t-57,20t-67,7.5q-90,0-157-48.5T328,840T289,605q-1-124 23.5-216t69-152T486,147t131-30q61,0 115,13.5T830,164t75,41l38-81q-34-34-92-68T720.5,0T570-22Z" />
      <glyph unicode="d" glyph-name="gid73" horiz-adv-x="1205" d="M504-22q-86,0-165,32.5T199,111T102.5,282.5T67,528q0,169 68.5,307.5t198,221.5T646,1140q51,0 98.5-6t86.5-15v373l-203,23v88l361,35h5l45-33V103h117V10q-41-9-96.5-19.5T945-20q-47,0-72,16T848,73v65q-34-41-85.5-78T645.5,0.5T504-22Zm81,142q57,0 105.5,18t85,45T831,236V969q-15,24-72.5,42T633,1029q-95,0-171.5-47.5t-122-151T292,558q-2-157 38-253.5T437.5,164T585,120Z" />
      <glyph unicode="e" glyph-name="gid75" horiz-adv-x="1043" d="M557-22Q389-22 278.5,52t-165,205T59,559q0,132 38.5,239T206,981.5T371.5,1099T581,1140q187,0 290-103T980,741q0-60-2.5-105T967,556H279q2-96 24-176.5T368,240t106-91t146-32q84,0 170,30t131,67l39-88q-35-37-98.5-71T718.5-0.5T557-22ZM280,662H760q2,17 3.5,42t1.5,44q0,122-50.5,200.5T544,1027q-53,0-99-18t-81.5-60T307,836.5T280,662Z" />
      <glyph unicode="f" glyph-name="gid80" horiz-adv-x="758" d="M77-1V99l169,17V977H58v92l188,39v97q0,95 38,177.5T387,1527t147,97t170,35q49,0 75.5-5.5T823,1642l-1-195q-18,15-66.5,27.5T640,1486q-64,1-104.5-20t-60-68T456,1270V1111H732V977H456V114L677,99V-1H77Z" />
      <glyph unicode="g" glyph-name="gid81" horiz-adv-x="1211" d="M554-540q-128,0-220,22T183-455.5t-87,97T68-231q0,64 25.5,117t68,92T255,39q-46,25-70,67T161,206q0,45 22,87.5T241,372t80,58Q221,474 167.5,557T114,756q0,121 67,207t173,131.5T578,1140q99,0 180-21t138-64q22,23 84,54.5t139,31.5h62V965H968q14-22 24.5-49.5T1009,856t6-66q0-123-59.5-214T792,435T554,385q-41,0-79.5,4.5T401,402q-31-25-51.5-57T329,278q0-73 50.5-96.5T550,158H777q131,0 215.5-34t125-97T1158-125q0-88-47.5-163.5T979-420.5t-193-88T554-540Zm18,116q95,0 182,29t143,84t56,134q0,56-18,94.5T867-24T720-4H480q-34,0-65.5,2T355,6q-40-36-62-86T271-195q0-71 28.5-122.5t94-79T572-424Zm2,918q119,0 173,71t54,204q0,91-26.5,149t-79,86.5T567,1033q-68,0-121.5-25.5T361,925T330,774q0-81 25-144.5T434,530t140-36Z" />
      <glyph unicode="h" glyph-name="gid82" horiz-adv-x="1325" d="M213,114V1492L46,1513v88l326,37h5l45-30V1144l-8-169q36,33 100,70.5t143,64T816,1136q127,0 196.5-48T1109,938t27-263V115l142-16V0H801V99l126,16V676q0,109-14.5,179.5t-59,104T721,993q-52,0-106.5-18t-104-45T425,875V116L561,99V0H88V99l125,15Z" />
      <glyph unicode="i" glyph-name="gid83" horiz-adv-x="648" d="M67,0V99l162,17V956L79,991v108l310,36h4l46-35V114L598,99V0H67ZM318,1309q-64,0-96.5,39T189,1439q0,58 35.5,103.5T333,1588h2q63,0 95.5-38t32.5-91q0-58-35.5-104T320,1309h-2Z" />
      <glyph unicode="j" glyph-name="gid90" horiz-adv-x="648" d="M107-486q-14-1-39.5-0.5t-48,2.5T-10-478l-10,95q14-1 44.5,3.5T90-362q58,20 90.5,78.5t46,146T240,60l-1,889L85,986v113l312,36h4l44-35V14q0-124-26-216T345.5-355T237-448.5T107-486ZM316,1309q-64,0-96.5,39T187,1439q0,58 35.5,103.5T331,1588h2q63,0 95.5-38t32.5-91q0-58-35.5-104T318,1309h-2Z" />
      <glyph unicode="k" glyph-name="gid93" horiz-adv-x="1267" d="M76,0V99l126,17V1492L46,1513v88l317,37h3l44-30V619l-5-118L858,990l-154,27v94h494v-94l-157-28L751,686l381-572l123-15V0H768V99l125,17L611,562L405,349l4-88V116L553,99V0H76Z" />
      <glyph unicode="l" glyph-name="gid94" horiz-adv-x="619" d="M203,116V1492L41,1513v88l322,37h3l44-30V114L583,99V0H41V99l162,17Z" />
      <glyph unicode="m" glyph-name="gid95" horiz-adv-x="1986" d="M88,0V99l121,17V956L66,991v109l285,35l35-23l13-81l-2-64q45,40 115.5,79t149,64.5T806,1136q107,0 172-36t99-113q39,34 104.5,68t142.5,57.5t149,23.5q94,0 156.5-27t99-82.5t52.5-142T1797,678V116l142-17V0H1464V99l122,17V671q0,109-16,181t-62.5,107T1371,994q-48,0-97.5-15T1180,941t-75-46q6-30 10-64.5t6-73.5t2-82V116l141-17V0H780V99l131,17V676q0,109-14,179.5t-56,104T713,993q-77,0-157.5-38T421,875V116L553,99V0H88Z" />
      <glyph unicode="n" glyph-name="gid96" horiz-adv-x="1326" d="M209,116V956L66,991v109l285,35h6l42-35v-83l-2-50q44,39 112,78t147.5,65T814,1136q127,0 197.5-48T1111,938.5T1140,677V114l139-14V0H805V99l123,15V676q0,109-16.5,179.5T850,959.5T719,993q-53,0-108-18.5t-104.5-46T421,873V116L557,99V0H82V99l127,17Z" />
      <glyph unicode="o" glyph-name="gid98" horiz-adv-x="1167" d="M66,559q0,140 44,248.5T229.5,990t170,112T595,1140q175,0 287-77t165.5-208T1101,559q0-141-44-249.5T937.5,127T767.5,15.5T572-22Q441-22 345,22T187.5,145T96,329.5T66,559ZM585,92q90,0 153.5,50t97,150.5T869,544q0,103-15.5,191T805,888.5T717.5,990T585,1026q-91,0-155-50T332,826T298,574q0-104 16-192t50-153t89-101T585,92Z" />
      <glyph unicode="p" glyph-name="gid106" horiz-adv-x="1226" d="M44-484v98l145,22V956L43,991v109l285,35h4l42-35V982q32,36 82.5,72.5t117,61T721,1140q113,0 213-56t161.5-176T1157,595q0-127-39-238.5t-113.5-197T824,26T584-22q-49,0-103.5,8T391,7l4-168V-364l208-22v-98H44ZM591,83q96,0 173.5,50T888,289t46,276q0,115-23,198T847.5,898.5t-94,77T640,1000q-56,0-104-16t-84-40t-57-47V143q15-21 70-40.5T591,83Z" />
      <glyph unicode="q" glyph-name="gid108" horiz-adv-x="1181" d="M609-484v94l222,22V-46l6,164q-36-35-85-67T641-1.5T505-22Q392-22 292,37T129.5,218.5T67,534q0,168 68.5,305.5t198.5,219T647,1140q66,0 131-11.5T890,1104l100,29h10l39-33V-369l138-21v-94H609ZM588,112q57,0 104.5,18t83,42.5T831,219V977q-12,21-70.5,41T632,1038q-95,0-171-48T340,837T293,563q-2-155 38-254.5t107.5-148T588,112Z" />
      <glyph unicode="r" glyph-name="gid109" horiz-adv-x="900" d="M74,0V98l149,13V956L79,991v109l276,35h5l43-35v-36l-5-177h5q9,16 37,54.5t75.5,81.5T629,1096.5T779,1127q29,0 46-3.5t28-6.5V902q-12,8-42.5,15.5T732,925q-81,0-138-20.5t-95.5-47T432,810V113L685,96V0H74Z" />
      <glyph unicode="s" glyph-name="gid110" horiz-adv-x="981" d="M470-22Q395-22 320-7.5t-136.5,34T89,61V317H220l36-156q13-19 46.5-37.5t79-29.5T477,83q79,0 128,20.5T676,161t22,86q0,57-36,96.5T558.5,416T394,486q-98,38-163.5,86t-99,113T98,840q0,89 53.5,155T297,1098t207,37q86,0 151-12.5t109.5-27T833,1074V826H712L672,974q-9,16-35.5,29t-63,21t-75.5,8q-62,1-108.5-17.5T318,963t-25-78q0-70 37.5-111.5t97-68.5T553,650q65-27 127-56.5T791,525t78.5-93.5T899,301q0-97-51-169.5T700.5,18.5T470-22Z" />
      <glyph unicode="t" glyph-name="gid112" horiz-adv-x="780" d="M406-21Q297-21 238,29.5T179,211V977H36v93q20,5 44,11.5t45,13t31,13.5q12,9 20,19t15,23t14,32q10,25 21.5,68t23,85t16.5,64H385l3-288H721V977H389V364q0-109 8.5-158t34-62.5T508,130q57,0 121,15t97,30l31-90q-31-24-87.5-48.5T544-4.5T406-21Z" />
      <glyph unicode="u" glyph-name="gid113" horiz-adv-x="1259" d="M982-19q-55,0-82.5,21T872,76v69q-37-38-94-76.5T653,4T514-22Q326-22 247,79.5T168,409V987L57,1019v90l281,26h2l38-26V423q0-109 17-176.5T456,148t126-31q58,0 108.5,19t91,45T848,230V987l-145,33v89l305,26h3l46-26V102h119l-1-91q-35-8-82.5-19T982-19Z" />
      <glyph unicode="v" glyph-name="gid118" horiz-adv-x="1137" d="M485-16L88,990l-92,25v96H461v-96L323,990L519,415l84-255l72,247L877,990l-135,25v96h406v-96l-103-25L658-16H485Z" />
      <glyph unicode="w" glyph-name="gid119" horiz-adv-x="1688" d="M-11,1015v96H461v-96L306,992L468,405l57-254l57,256l201,704H992l180-704l53-257l67,255l159,585l-151,25v96h410v-96l-110-25L1286-16H1093L900,690L853,924L801,690L593-16H405L94,992l-105,23Z" />
      <glyph unicode="x" glyph-name="gid120" horiz-adv-x="1188" d="M141,116L483,553L144,992L43,1015v96H537v-96L398,992L579,735l57-87l54,86L880,992l-146,23v96h413v-96l-113-23L709,579l353-465l106-17V0H664V97l132,19L613,386l-61,90l-53-88L306,116L474,97V0H19V97l122,19Z" />
      <glyph unicode="y" glyph-name="gid121" horiz-adv-x="1164" d="M272-502q-30,0-56.5,4.5T174-486v180q13-8 41-12.5t58-4.5q41,0 79.5,13t76,47.5t74,98.5T575,0H479L99,990L7,1015v96H491v-96L336,991L533,402l91-290l85,292L888,992l-135,23v96h404v-96l-102-23Q994,803 943.5,650.5T853,380T784.5,177.5T737,41.5T710-30Q649-183 592-288.5T460-448T272-502Z" />
      <glyph unicode="z" glyph-name="gid124" horiz-adv-x="1088" d="M784,996L289,982L251,791H127v320H981l39-87L425,237L294,112l529,19l98,223l115-14L990,0H97L55,89L652,867L784,996Z" />
      <glyph unicode="{" glyph-name="gid207" horiz-adv-x="1024" d="M641-275q-180,0-262,66T297-21q0,70 15,130t34.5,115.5t34.5,110T396,448q0,47-19.5,82T298,585T121,604V752q118-1 177,14t78.5,45.5T396,888q0,59-15,114t-34.5,110.5T312,1228t-15,129q0,124 82,189t262,65q61,0 114.5-10T868,1576v-92q-11,2-40.5,3t-58.5,1.5t-40,0.5q-58,0-110.5-13.5t-85-49T501,1324q0-62 17.5-137.5t35-153.5T571,884q0-66-40-109T427.5,707.5T295,672q69-10 132.5-36.5t103.5-72T571,452q0-70-17.5-147.5T518.5,152T501,15q0-68 32-103.5t84.5-49T729-151q12,0 41.5,1t58,2.5T868-145v-93q-59-15-112.5-26T641-275Z" />
      <glyph unicode="|" glyph-name="gid233" horiz-adv-x="844" d="M505,1738V-182H339V1738H505Z" />
      <glyph unicode="}" glyph-name="gid208" horiz-adv-x="1024" d="M383-275q-60,0-113.5,11T157-238v93q11-1 39.5-2.5T254-150t42-1q58,0 110.5,13.5t85,49T524,15q0,62-17.5,137t-35,152.5T454,452q0,66 40,111.5t103,72T730,672q-70,11-133,35.5T494,775T454,884q0,71 17.5,149t35,153.5T524,1324q0,67-33,102.5t-85,49T296,1489q-11,0-40.5-0.5T197,1487t-40-3v92q59,15 112.5,25T383,1611q182,0 263.5-65T728,1357q0-69-15.5-129T678,1112.5T643.5,1002T628,888q0-46 20-76.5T727,766t176-14V604q-117,1-176-19t-79-55t-20-82q0-59 15.5-113.5t34.5-110T712.5,109T728-21q0-122-81.5-188T383-275Z" />
      <glyph unicode="~" glyph-name="gid250" horiz-adv-x="1220" d="M180,507q12,46 45,90.5t83.5,78T421,720q69,12 120.5-4T635,674t83.5-44T808,620q58,11 85.5,42.5T944,743l96-53q-25-69-74.5-134T828,474q-67-11-118.5,5t-96,42.5t-88.5,44T429,574q-59-10-100-47.5T268,440l-88,67Z" />
      <glyph unicode="&#xa0;" glyph-name="gid179" horiz-adv-x="474" />
      <glyph unicode="&#xa1;" glyph-name="gid189" horiz-adv-x="577" d="M177-317l54,1317H361L421-317H177ZM301,1496q50,0 89-34t39-92q0-62-46.5-103.5T278,1225q-67,0-99.5,39T146,1352q0,66 45.5,105T301,1496Z" />
      <glyph unicode="&#xa2;" glyph-name="gid235" horiz-adv-x="1137" d="M140,544q0,153 55.5,282t166,212.5T635,1137l17,229H782l-18-228q54-6 99-17t79.5-22.5T1001,1080L989,772H860L815,975q-4,22-27,34.5T732.5,1027t-68.5,5q-89,0-156-48.5T403.5,840T365,605q-1-124 23.5-216T457,237t103.5-90T691,117q61,0 115.5,13.5T905,164t74,41l38-81q-31-32-83-63.5T816,6.5T678-22L661-252H530L548-15Q412,6 321.5,84T186,281T140,544Z" />
      <glyph unicode="&#xa3;" glyph-name="gid239" horiz-adv-x="1487" d="M964-14Q874-14 798.5,4.5t-142,43T526,91T392,111q-39-44-87.5-77.5T200,0q-34,0-68,18T98,83q0,38 33.5,71.5t87,53.5T332,225q15,22 26.5,68.5t19,104T385,508V758H189V868H385V998q0,153 67.5,266.5t180,176T880,1503q122,0 214.5-35.5T1241,1385l-104-151q-10,19-52.5,54T976,1351.5T830,1380q-39,0-78.5-12.5t-72.5-48T625.5,1218T605,1046V868H910V758H605V535q0-83-16.5-145.5T544.5,281T484,199q78-6 154.5-23t154-32.5T950,128q125,0 170,48t45,148q0,57-14.5,110T1115,507h221q15-18 27.5-59T1376,346q0-95-53-177T1177,36.5T964-14Z" />
      <glyph unicode="&#xa4;" glyph-name="gid236" horiz-adv-x="1474" d="M387,490q-37,53-57.5,118T309,746q0,74 21.5,142.5T391,1012L180,1224l107,110l213-214q50,34 109,53t125,19t127-18t112-50l213,211l108-109l-208-206q39-53 61-117.5T1169,764q0-75-23.5-143T1080,496l210-208L1182,178L971,391q-51-34-111.5-53.5T734,318q-66,0-125.5,18T498,385L287,174L180,284L387,490Zm347-20q90,0 149.5,38.5T972,611t29,141q0,79-37,144.5T865,1001t-135,39q-86,0-144-41T498.5,891.5T469,748t36-140.5T601,507t133-37Z" />
      <glyph unicode="&#xa5;" glyph-name="gid240" horiz-adv-x="1538" d="M612,820L243,1370l-130,25v91H646v-91l-146-22L755,946l60-125l70,127l232,425l-153,22v91h461v-91l-142-25L935,820h395V713H881V457h449V350H881V113l229-23V0H460V90l222,23V350H234V457H682V713H234V820H612Z" />
      <glyph unicode="&#xa6;" glyph-name="gid234" horiz-adv-x="844" d="M505,1738V928H339v810H505Zm0-1112V-182H339V626H505Z" />
      <glyph unicode="&#xa7;" glyph-name="gid226" horiz-adv-x="1344" d="M339,234L372-3q31-31 110.5-57.5T656-87q155,0 227,51.5T955,92q0,54-30,94t-81.5,71.5T726,316.5T587,372q-77,31-149.5,69.5T307.5,532T216,653T182,814q0,87 38.5,153.5T328,1084q-48,47-78,104.5T220,1321q0,96 59,169t166,113.5T696,1644q93,0 169.5-16T998,1594.5t86-22.5l-12-314H951l-49,220q-11,14-69.5,33T687,1530q-134,0-205.5-43T410,1360q0-59 25.5-100t71-71.5t105-56T737,1079q61-26 135.5-61T1015,934.5t112.5-116T1172,658q0-91-39.5-165T1027,364q52-44 85.5-98T1146,143q0-84-51-162T933.5-147.5T647-198q-114,0-206.5,22T283-131.5T187-106l21,340H339ZM698,540q26-11 54.5-23t58-25.5t60-28.5T930,431q31,32 48.5,70.5T996,589q0,77-45,132T826.5,819.5T643,906q-26,10-54.5,22t-58,25.5t-59,30T413,1019q-34-31-51.5-66T344,871q0-82 45.5-140T515,628t183-88Z" />
      <glyph unicode="&#xa8;" glyph-name="gid279" horiz-adv-x="1041" d="M296,1307q-56,0-86,38t-30,91q0,57 33.5,102.5T312,1584h2q56,0 86-38t30-91q0-57-33-102.5T298,1307h-2Zm432,0q-56,0-86,38t-30,91q0,57 33,102.5t98,45.5h2q57,0 86.5-38t29.5-91q0-57-32.5-102.5T730,1307h-2Z" />
      <glyph unicode="&#xa9;" glyph-name="gid227" horiz-adv-x="2080" d="M191,980q0,178 65,332.5T437.5,1584t271,183t331.5,66q178,0 332-66t270-183t181.5-271.5T1889,980t-65.5-333.5T1642,373T1372,189t-332-66q-177,0-331.5,66t-271,184T256,646.5T191,980Zm117,0q0-155 56-291.5T519,448T751.5,285T1040,226t288,59t232,163.5T1714.5,689T1770,980q0,154-55.5,290T1560,1510t-232,162.5T1040,1731t-288.5-59t-233-163t-155-240T308,980Zm738-476q-145,0-242,60.5t-145.5,166T610,972q0,137 64,248t175.5,176t255.5,65q43,0 94-6.5t94-19.5t62-32l-1-222H1248l-40,129q-20,16-55,25.5t-108,9.5q-83,0-141.5-42T814,1184.5T783,1005q0-164 88.5-262T1104,645q66,0 122,24.5t94,62.5l46-80q-27-35-76-69t-111.5-56.5T1046,504Z" />
      <glyph unicode="&#xaa;" glyph-name="gid129" horiz-adv-x="911" d="M696,675q-43,0-67,14t-24,63v53q-20-20-61-50.5T446,700T321,676q-72,0-136,28T82,790T43,936q0,82 45.5,139t123,92T388,1219t205,19v46q0,73-17,118t-58,65.5T403,1488q-94,0-167.5-30T123,1407l-47,85q17,15 73,43.5t134.5,52T446,1611q171,0 247.5-72.5T770,1293V774h96V699q-19-4-48.5-9.5t-61.5-10T696,675ZM398,786q43,0 98,27t97,61v278q-121,0-200-26t-117-70T238,955q0-90 45.5-129.5T398,786Z" />
      <glyph unicode="&#xab;" glyph-name="gid217" horiz-adv-x="1371" d="M564,1102l100-62L351,599L664,172L564,104L128,529V667l436,435Zm559,0l101-62L882,599l342-427l-101-68L659,529V667l464,435Z" />
      <glyph unicode="&#xac;" glyph-name="gid251" horiz-adv-x="1338" d="M1152,628V101H993V497H186V628h966Z" />
      <glyph unicode="&#xae;" glyph-name="gid228" horiz-adv-x="2080" d="M191,980q0,178 65,332.5T437.5,1584t271,183t331.5,66q178,0 332-66t270-183t181.5-271.5T1889,980t-65.5-333.5T1642,373T1372,189t-332-66q-177,0-331.5,66t-271,184T256,646.5T191,980Zm117,0q0-155 56-291.5T519,448T751.5,285T1040,226t288,59t232,163.5T1714.5,689T1770,980q0,154-55.5,290T1560,1510t-232,162.5T1040,1731t-288.5-59t-233-163t-155-240T308,980ZM742,610v727l-90,21v89H811q49,0 85,1t73,2.5t89,1.5q181,0 270-66.5t89-178.5q0-110-56-184.5T1202,925q57-25 88-64.5t49-82t34.5-81t43.5-64t76-28.5V507H1345q-54,0-82,32t-44,81.5t-33,103T1140,822t-84,66l-156,2V606l103-19V507H652v80l90,23Zm158,390q16-3 46.5-4.5T1009,994t53,0q74,0 125.5,54.5T1239,1179q0,96-52,135t-154,39q-31,0-62.5-1t-70.5-9V1000Z" />
      <glyph unicode="&#xaf;" glyph-name="gid285" horiz-adv-x="951" d="M771,1464V1322H180v142H771Z" />
      <glyph unicode="&#xb0;" glyph-name="gid230" horiz-adv-x="928" d="M463,919q-94,0-172,47T166,1091t-47,171q0,99 47,176.5t125,122T463,1605q101,0 179.5-47T766,1433t45-171q0-99-47-176.5t-126-122T463,919Zm2,130q91,0 148.5,59.5T671,1262q0,88-60,151.5T463,1477q-90,0-148-61.5T257,1262q0-58 28-106.5t75.5-77.5T465,1049Z" />
      <glyph unicode="&#xb1;" glyph-name="gid249" horiz-adv-x="1262" d="M554,234V405l6,167l-175-7H180V719H385l175-11l-6,170v235H707V878l-8-170l151,11h232V565H850l-151,7l8-167V234H554ZM180,0V138h876V0H180Z" />
      <glyph unicode="&#xb2;" glyph-name="gid176" horiz-adv-x="838" d="M31,927q92,50 179,116t157,141.5t111.5,153T520,1488q0,86-48.5,134T338,1670q-58,0-100-19t-71.5-46T116,1556l-72,74q30,44 78.5,84T238,1780t152,26q101,0 172.5-36.5T672,1670t38-143q0-74-36-153T574,1217.5t-147.5-145T246,955l405,37l50,110l87-17L751,845H61L31,927Z" />
      <glyph unicode="&#xb3;" glyph-name="gid177" horiz-adv-x="777" d="M233,830q-43,0-90.5,6.5T64,851V953q25-8 59-13t69-5q114,0 186.5,26t107,71.5T520,1135q0,50-20,84.5t-67,51T306,1282q-10-2-30-6t-40-8t-29-6l-36,96q31,5 63,13.5t61,18.5q89,33 134.5,76.5T475,1568q-1,41-23,66t-60,37t-85,12q-70,0-128-22t-93-46l-49,87q26,21 75,45t113.5,42T362,1807q89,0 159.5-22.5t111-68T673,1599q0-65-42-117.5T523,1392t-139-59q113,23 187.5,0t112-74T722,1146q1-91-52-162.5T508.5,871T233,830Z" />
      <glyph unicode="&#xb4;" glyph-name="gid281" horiz-adv-x="833" d="M258,1289l-78,67l321,399l152-128q-21-35-70-85.5T473.5,1439T356,1346.5T260,1289h-2Z" />
      <glyph unicode="&#xb5;" glyph-name="gid253" horiz-adv-x="1249" d="M168-364V988L57,1019v89l279,27h4l38-26V324q0-27 15.5-62t46-67.5t73-53.5T610,120q69,0 117.5,24.5T806,202t43,58V987l-145,33v88l303,27h4l46-25V102h109V11q-21-7-51.5-14T1048-14.5T975-19q-33,0-56,10T884.5,21T873,69v86q-23-48-63-87.5T716.5,4T601-20q-48,0-94.5,16t-85,50T359,133V-364H168Z" />
      <glyph unicode="&#xb6;" glyph-name="gid225" horiz-adv-x="1463" d="M532,116V793q-144,0-239,52.5t-141.5,152T105,1237q0,125 61,222.5t180.5,154T642,1670q79,0 135.5-2.5T883,1661t104-6.5t130-2.5h210V1550l-170-20V116l146-19V0H977V1528q-35,3-94,7.5T760,1540q-14,0-27.5-1t-20.5-1V0H336V97l196,19Z" />
      <glyph unicode="&#xb7;" glyph-name="gid192" horiz-adv-x="227" d="M102,667q-51,0-89.5,35.5T-26,795q0,64 46,105.5T125,942q65,0 96-39.5T252,813q0-66-44-106T102,667Z" />
      <glyph unicode="&#xb8;" glyph-name="gid286" horiz-adv-x="748" d="M327-482q-38,0-79,8t-68,18l1,138q21-7 48.5-11t41.5-4q62,0 98,24.5T405-193q0,40-12.5,80T364-42.5T338,2l63,10L438,2q21-19 52.5-61t55-99T568-280q-1-73-31.5-117.5t-84-64.5T327-482Z" />
      <glyph unicode="&#xb9;" glyph-name="gid175" horiz-adv-x="636" d="M263,938v689q-18-5-59-13.5T121.5,1598T59,1590l-20,97q55,11 111.5,31t106,45t82.5,48l107-15V939l181-13V845H73v81l190,12Z" />
      <glyph unicode="&#xba;" glyph-name="gid130" horiz-adv-x="955" d="M478,678q-118,0-212,53T118,890T66,1156q2,117 39.5,202.5t99,141.5T340,1583t149,27q129,0 219-54.5T844.5,1397T889,1146q-1-123-38-211.5t-97-145t-132.5-84T478,678Zm-3,94q67,1 116.5,31t76,108.5T694,1134q0,119-25,204t-73,131t-116,46q-95,0-156.5-84T262,1163q0-123 29.5-210T369,819t106-47Z" />
      <glyph unicode="&#xbb;" glyph-name="gid218" horiz-adv-x="1371" d="M809,1102l435-435V529L809,104L709,172l312,427L709,1040l100,62Zm-561,0L712,667V529L248,104L148,172L490,599L148,1040l100,62Z" />
      <glyph unicode="&#xbc;" glyph-name="gid173" horiz-adv-x="1775" d="M263,718v689q-18-5-59-13.5T121.5,1378T59,1370l-20,97q55,11 111.5,31t106,45t82.5,48l107-15V719l181-13V625H73v81l190,12Zm923,912h144L488-102H345l841,1732ZM1424,0V198H1016l-49,89q40,71 86,159t92.5,181t87,180T1302,962h94l113-50L1185,373l-66-74l306,18l19,242l151,7V323l148,10V198H1595V0H1424Z" />
      <glyph unicode="&#xbd;" glyph-name="gid172" horiz-adv-x="1860" d="M263,718v689q-18-5-59-13.5T121.5,1378T59,1370l-20,97q55,11 111.5,31t106,45t82.5,48l107-15V719l181-13V625H73v81l190,12Zm923,912h144L488-102H345l841,1732ZM1053,82q92,50 179,116t157,141.5t111.5,153T1542,643q0,86-48.5,134T1360,825q-58,0-100-19t-71.5-46T1138,711l-72,74q30,44 78.5,84T1260,935t152,26q101,0 172.5-36.5T1694,825t38-143q0-74-36-153T1596,372.5t-147.5-145T1268,110l405,37l50,110l87-17L1773,0H1083l-30,82Z" />
      <glyph unicode="&#xbe;" glyph-name="gid174" horiz-adv-x="1884" d="M233,610q-43,0-90.5,6.5T64,631V733q25-8 59-13t69-5q114,0 186.5,26t107,71.5T520,915q0,50-20,84.5t-67,51T306,1062q-10-2-30-6t-40-8t-29-6l-36,96q31,5 63,13.5t61,18.5q89,33 134.5,76.5T475,1348q-1,41-23,66t-60,37t-85,12q-70,0-128-22t-93-46l-49,87q26,21 75,45t113.5,42T362,1587q89,0 159.5-22.5t111-68T673,1379q0-65-42-117.5T523,1172t-139-59q113,23 187.5,0t112-74T722,926q1-91-52-162.5T508.5,651T233,610ZM1294,1630h144L596-102H453l841,1732ZM1533,0V198H1125l-49,89q40,71 86,159t92.5,181t87,180T1411,962h94l113-50L1294,373l-66-74l306,18l19,242l151,7V323l148,10V198H1704V0H1533Z" />
      <glyph unicode="&#xbf;" glyph-name="gid191" horiz-adv-x="962" d="M627,994q21-47 36.5-95.5t24-94T696,719q0-55-24-95t-65-71.5t-93.5-63T403,419q-30-22-64-60.5t-57.5-89T258,163q0-88 43-169T434-139t231-52q45,0 94.5,8.5T838-161l32-126q-22-12-62-22.5T719-327t-100-7q-155,0-260.5,40t-169,108T97.5-34T69,138q0,93 35.5,163T195,425t114,97.5t109,84T492,690q5,11 10,29.5t5,34.5q0,64-7.5,124.5T485,994H627Zm-65,504q50,0 89-34t39-92q0-62-46.5-103T539,1228q-67,0-100,38.5T406,1354q0,67 46,105.5T562,1498Z" />
      <glyph unicode="&#xc0;" glyph-name="gid6" horiz-adv-x="1410" d="M111,118L607,1498H834L1299,118l125-19V0H895V99l162,19L964,413H384L289,119L461,99V0H-13l-1,99l125,19ZM927,531L730,1178l-44,165l-50-170L420,531H927ZM727,1600q-35,16-78,44.5t-86.5,64t-82,74T415,1857l150,119l241-310l-77-66h-2Z" />
      <glyph unicode="&#xc1;" glyph-name="gid2" horiz-adv-x="1410" d="M111,118L607,1498H834L1299,118l125-19V0H895V99l162,19L964,413H384L289,119L461,99V0H-13l-1,99l125,19ZM927,531L730,1178l-44,165l-50-170L420,531H927ZM717,1600l-77,66l241,310l150-119q-26-36-64.5-74.5t-82.5-74t-86.5-64T719,1600h-2Z" />
      <glyph unicode="&#xc2;" glyph-name="gid4" horiz-adv-x="1410" d="M111,118L607,1498H834L1299,118l125-19V0H895V99l162,19L964,413H384L289,119L461,99V0H-13l-1,99l125,19ZM927,531L730,1178l-44,165l-50-170L420,531H927ZM459,1599l-78,59l251,280H806l251-279l-79-60L719,1805L459,1599Z" />
      <glyph unicode="&#xc3;" glyph-name="gid8" horiz-adv-x="1410" d="M111,118L607,1498H834L1299,118l125-19V0H895V99l162,19L964,413H384L289,119L461,99V0H-13l-1,99l125,19ZM927,531L730,1178l-44,165l-50-170L420,531H927ZM835,1620q-51,0-83.5,21.5t-56.5,49T647.5,1739T592,1760q-41,0-62.5-38T494,1633l-85,45q10,102 64,158t129,56q51,0 83.5-21t56.5-48.5t47.5-49T844,1752q41,0 63,38.5t36,88.5l84-44q-10-102-64-158.5T835,1620Z" />
      <glyph unicode="&#xc4;" glyph-name="gid5" horiz-adv-x="1410" d="M111,118L607,1498H834L1299,118l125-19V0H895V99l162,19L964,413H384L289,119L461,99V0H-13l-1,99l125,19ZM927,531L730,1178l-44,165l-50-170L420,531H927ZM525,1626q-52,0-81.5,37.5T414,1754q0,58 32.5,103t93.5,45h2q52,0 81.5-37.5T653,1774q0-58-32.5-103T527,1626h-2Zm372,0q-52,0-81.5,37.5T786,1754q0,58 32.5,103t93.5,45h2q52,0 81.5-37.5T1025,1774q0-58-32.5-103T899,1626h-2Z" />
      <glyph unicode="&#xc5;" glyph-name="gid7" horiz-adv-x="1410" d="M111,118L607,1498H834L1299,118l125-19V0H895V99l162,19L964,413H384L289,119L461,99V0H-13l-1,99l125,19ZM927,531L730,1178l-44,165l-50-170L420,531H927ZM717,1591q-115,0-186,68t-70,176t73.5,176T721,2079t184.5-68T975,1834q0-108-72-175.5T717,1591Zm1,95q65,0 103,39t38,108q0,70-38,110t-102,40q-65,0-103.5-39.5T577,1835t38.5-109T718,1686Z" />
      <glyph unicode="&#xc6;" glyph-name="gid9" horiz-adv-x="1925" d="M-69,0V97L73,118L616,1364l-261,24v98H1759l29-311H1674l-60,195l-495,14V821l334,6l27,166h112V533H1480l-27,172l-334,5V112l562,20l110,252l117-36L1849,0H736V97l168,21V431H388L261,118L415,97V0H-69ZM436,551H904v825H772L664,1113L436,551Z" />
      <glyph unicode="&#xc7;" glyph-name="gid12" horiz-adv-x="1309" d="M747-22Q580-22 451.5,31T235,182.5t-132.5,238T58,733q0,171 54.5,313T265,1291t229,159t285,56q69,0 131.5-7.5T1028,1481t101.5-19t81.5-14l-19-363H1059l-50,254q-16,14-51.5,27t-89,21.5T744,1396q-126,0-225.5-72.5T361,1110.5T303,765q0-139 27.5-261.5t83-216T554.5,141T756,88q76,0 125.5,9t81,25.5T1017,158l85,204l124-16L1179,54q-42-2-81.5-14T1012,13.5t-110-25T747-22ZM682-482q-38,0-79,8t-68,18l1,138q21-7 48.5-11t41.5-4q62,0 98,24.5T760-193q0,40-12.5,80T719-42.5T693,2l63,10L793,2q21-19 52.5-61t55-99T923-280q-1-73-31.5-117.5t-84-64.5T682-482Z" />
      <glyph unicode="&#xc8;" glyph-name="gid19" horiz-adv-x="1269" d="M246,118V1361L82,1385v101H1110l28-311H1024l-64,195l-497,12V821l331,6l29,165H934V533H823L795,705l-332,5V112l558,20l114,257l117-35L1191,0H80V99l166,19ZM661,1600q-35,16-78,44.5t-86.5,64t-82,74T349,1857l150,119l241-310l-77-66h-2Z" />
      <glyph unicode="&#xc9;" glyph-name="gid16" horiz-adv-x="1269" d="M246,118V1361L82,1385v101H1110l28-311H1024l-64,195l-497,12V821l331,6l29,165H934V533H823L795,705l-332,5V112l558,20l114,257l117-35L1191,0H80V99l166,19ZM651,1600l-77,66l241,310l150-119q-26-36-64.5-74.5t-82.5-74t-86.5-64T653,1600h-2Z" />
      <glyph unicode="&#xca;" glyph-name="gid17" horiz-adv-x="1269" d="M246,118V1361L82,1385v101H1110l28-311H1024l-64,195l-497,12V821l331,6l29,165H934V533H823L795,705l-332,5V112l558,20l114,257l117-35L1191,0H80V99l166,19ZM392,1599l-78,59l251,280H739l251-279l-79-60L652,1805L392,1599Z" />
      <glyph unicode="&#xcb;" glyph-name="gid18" horiz-adv-x="1269" d="M246,118V1361L82,1385v101H1110l28-311H1024l-64,195l-497,12V821l331,6l29,165H934V533H823L795,705l-332,5V112l558,20l114,257l117-35L1191,0H80V99l166,19ZM458,1626q-52,0-81.5,37.5T347,1754q0,58 32.5,103t93.5,45h2q52,0 81.5-37.5T586,1774q0-58-32.5-103T460,1626h-2Zm372,0q-52,0-81.5,37.5T719,1754q0,58 32.5,103t93.5,45h2q52,0 81.5-37.5T958,1774q0-58-32.5-103T832,1626h-2Z" />
      <glyph unicode="&#xcc;" glyph-name="gid27" horiz-adv-x="746" d="M264,118V1361L79,1385v101H667V1385l-187-24V118L667,97V0H80V99l184,19ZM382,1600q-35,16-78,44.5t-86.5,64t-82,74T70,1857l150,119l241-310l-77-66h-2Z" />
      <glyph unicode="&#xcd;" glyph-name="gid24" horiz-adv-x="746" d="M264,118V1361L79,1385v101H667V1385l-187-24V118L667,97V0H80V99l184,19ZM372,1600l-77,66l241,310l150-119q-26-36-64.5-74.5t-82.5-74t-86.5-64T374,1600h-2Z" />
      <glyph unicode="&#xce;" glyph-name="gid25" horiz-adv-x="746" d="M264,118V1361L79,1385v101H667V1385l-187-24V118L667,97V0H80V99l184,19ZM114,1599l-78,59l251,280H461l251-279l-79-60L374,1805L114,1599Z" />
      <glyph unicode="&#xcf;" glyph-name="gid26" horiz-adv-x="746" d="M264,118V1361L79,1385v101H667V1385l-187-24V118L667,97V0H80V99l184,19ZM180,1626q-52,0-81.5,37.5T69,1754q0,58 32.5,103t93.5,45h2q52,0 81.5-37.5T308,1774q0-58-32.5-103T182,1626h-2Zm372,0q-52,0-81.5,37.5T441,1754q0,58 32.5,103t93.5,45h2q52,0 81.5-37.5T680,1774q0-58-32.5-103T554,1626h-2Z" />
      <glyph unicode="&#xd0;" glyph-name="gid14" horiz-adv-x="1504" d="M678-16q-37,1-77.5,3.5T518-7T435-2T354,0H79V99l167,19V1361L89,1385v101H352q62,0 119.5,4t115,7.5T705,1501q192,0 330.5-50T1263,1308t131.5-224T1437,790q0-182-54.5-331.5t-155-257T987.5,37T678-16ZM698,96q148,2 262,75t179,218t65,361q0,156-33,276t-101,201.5T898.5,1351T655,1393q-41,0-77-3t-65.5-6t-52.5-4V112q40-8 79.5-12T618,95.5T698,96ZM109,719V834H766V719H109Z" />
      <glyph unicode="&#xd1;" glyph-name="gid34" horiz-adv-x="1547" d="M69,0V99l159,21V1361q-26,5-53,8.5t-53,7.5t-53,8v101H447l658-976l114-211V1361l-175,24v101h472V1385l-160-24V0H1197L520,996L365,1262V118L556,99V0H69ZM911,1620q-51,0-83.5,21.5t-56.5,49T723.5,1739T668,1760q-41,0-62.5-38T570,1633l-85,45q10,102 64,158t129,56q51,0 83.5-21t56.5-48.5t47.5-49T920,1752q41,0 63,38.5t36,88.5l84-44q-10-102-64-158.5T911,1620Z" />
      <glyph unicode="&#xd2;" glyph-name="gid39" horiz-adv-x="1444" d="M709-22Q495-25 352,71.5T138,340T67,735q0,176 50,317.5T258.5,1295t214,154.5T739,1503q212,0 353.5-92t213-259.5T1377,759q0-175-50-318T1187,195.5T975,36.5T709-22Zm9,105q126,0 219.5,76t146,226.5T1136,759q0,200-48,343T947.5,1321.5T723,1398q-125,0-218.5-73t-145-220T308,735q0-199 48-345.5T495.5,163T718,83Zm13,1517q-35,16-78,44.5t-86.5,64t-82,74T419,1857l150,119l241-310l-77-66h-2Z" />
      <glyph unicode="&#xd3;" glyph-name="gid36" horiz-adv-x="1444" d="M709-22Q495-25 352,71.5T138,340T67,735q0,176 50,317.5T258.5,1295t214,154.5T739,1503q212,0 353.5-92t213-259.5T1377,759q0-175-50-318T1187,195.5T975,36.5T709-22Zm9,105q126,0 219.5,76t146,226.5T1136,759q0,200-48,343T947.5,1321.5T723,1398q-125,0-218.5-73t-145-220T308,735q0-199 48-345.5T495.5,163T718,83Zm3,1517l-77,66l241,310l150-119q-26-36-64.5-74.5t-82.5-74t-86.5-64T723,1600h-2Z" />
      <glyph unicode="&#xd4;" glyph-name="gid37" horiz-adv-x="1444" d="M709-22Q495-25 352,71.5T138,340T67,735q0,176 50,317.5T258.5,1295t214,154.5T739,1503q212,0 353.5-92t213-259.5T1377,759q0-175-50-318T1187,195.5T975,36.5T709-22Zm9,105q126,0 219.5,76t146,226.5T1136,759q0,200-48,343T947.5,1321.5T723,1398q-125,0-218.5-73t-145-220T308,735q0-199 48-345.5T495.5,163T718,83ZM462,1599l-78,59l251,280H809l251-279l-79-60L722,1805L462,1599Z" />
      <glyph unicode="&#xd5;" glyph-name="gid41" horiz-adv-x="1444" d="M709-22Q495-25 352,71.5T138,340T67,735q0,176 50,317.5T258.5,1295t214,154.5T739,1503q212,0 353.5-92t213-259.5T1377,759q0-175-50-318T1187,195.5T975,36.5T709-22Zm9,105q126,0 219.5,76t146,226.5T1136,759q0,200-48,343T947.5,1321.5T723,1398q-125,0-218.5-73t-145-220T308,735q0-199 48-345.5T495.5,163T718,83ZM839,1620q-51,0-83.5,21.5t-56.5,49T651.5,1739T596,1760q-41,0-62.5-38T498,1633l-85,45q10,102 64,158t129,56q51,0 83.5-21t56.5-48.5t47.5-49T848,1752q41,0 63,38.5t36,88.5l84-44q-10-102-64-158.5T839,1620Z" />
      <glyph unicode="&#xd6;" glyph-name="gid38" horiz-adv-x="1444" d="M709-22Q495-25 352,71.5T138,340T67,735q0,176 50,317.5T258.5,1295t214,154.5T739,1503q212,0 353.5-92t213-259.5T1377,759q0-175-50-318T1187,195.5T975,36.5T709-22Zm9,105q126,0 219.5,76t146,226.5T1136,759q0,200-48,343T947.5,1321.5T723,1398q-125,0-218.5-73t-145-220T308,735q0-199 48-345.5T495.5,163T718,83ZM528,1626q-52,0-81.5,37.5T417,1754q0,58 32.5,103t93.5,45h2q52,0 81.5-37.5T656,1774q0-58-32.5-103T530,1626h-2Zm372,0q-52,0-81.5,37.5T789,1754q0,58 32.5,103t93.5,45h2q52,0 81.5-37.5T1028,1774q0-58-32.5-103T902,1626h-2Z" />
      <glyph unicode="&#xd7;" glyph-name="gid244" horiz-adv-x="1338" d="M568,643L227,969l120,123L671,745l321,347l119-124L773,643l338-326L992,195L671,541L347,195L229,317L568,643Z" />
      <glyph unicode="&#xd8;" glyph-name="gid40" horiz-adv-x="1444" d="M1050,1667l72-28L392-197l-72,26l730,1838ZM709-22Q495-25 352,71.5T138,340T67,735q0,176 50,317.5T258.5,1295t214,154.5T739,1503q212,0 353.5-92t213-259.5T1377,759q0-175-50-318T1187,195.5T975,36.5T709-22Zm9,105q126,0 219.5,76t146,226.5T1136,759q0,200-48,343T947.5,1321.5T723,1398q-125,0-218.5-73t-145-220T308,735q0-199 48-345.5T495.5,163T718,83Z" />
      <glyph unicode="&#xd9;" glyph-name="gid54" horiz-adv-x="1480" d="M763-16Q566-16 439.5,53t-188,211.5T190,627v734L48,1385v101H583V1385l-171-25V606q0-142 26.5-240t76-158T633,121T788,94q123,0 203.5,58.5t120.5,170T1152,593v766l-168,26v101h466V1385l-146-24V605q0-163-40.5-280.5T1150,131.5T978,20T763-16Zm-6,1616q-35,16-78,44.5t-86.5,64t-82,74T445,1857l150,119l241-310l-77-66h-2Z" />
      <glyph unicode="&#xda;" glyph-name="gid51" horiz-adv-x="1480" d="M763-16Q566-16 439.5,53t-188,211.5T190,627v734L48,1385v101H583V1385l-171-25V606q0-142 26.5-240t76-158T633,121T788,94q123,0 203.5,58.5t120.5,170T1152,593v766l-168,26v101h466V1385l-146-24V605q0-163-40.5-280.5T1150,131.5T978,20T763-16ZM747,1600l-77,66l241,310l150-119q-26-36-64.5-74.5t-82.5-74t-86.5-64T749,1600h-2Z" />
      <glyph unicode="&#xdb;" glyph-name="gid52" horiz-adv-x="1480" d="M763-16Q566-16 439.5,53t-188,211.5T190,627v734L48,1385v101H583V1385l-171-25V606q0-142 26.5-240t76-158T633,121T788,94q123,0 203.5,58.5t120.5,170T1152,593v766l-168,26v101h466V1385l-146-24V605q0-163-40.5-280.5T1150,131.5T978,20T763-16ZM488,1599l-78,59l251,280H835l251-279l-79-60L748,1805L488,1599Z" />
      <glyph unicode="&#xdc;" glyph-name="gid53" horiz-adv-x="1480" d="M763-16Q566-16 439.5,53t-188,211.5T190,627v734L48,1385v101H583V1385l-171-25V606q0-142 26.5-240t76-158T633,121T788,94q123,0 203.5,58.5t120.5,170T1152,593v766l-168,26v101h466V1385l-146-24V605q0-163-40.5-280.5T1150,131.5T978,20T763-16ZM554,1626q-52,0-81.5,37.5T443,1754q0,58 32.5,103t93.5,45h2q52,0 81.5-37.5T682,1774q0-58-32.5-103T556,1626h-2Zm372,0q-52,0-81.5,37.5T815,1754q0,58 32.5,103t93.5,45h2q52,0 81.5-37.5T1054,1774q0-58-32.5-103T928,1626h-2Z" />
      <glyph unicode="&#xdd;" glyph-name="gid59" horiz-adv-x="1287" d="M531,118V579L94,1360l-120,25v101H497V1385l-158-24L611,826l66-152l70,152l275,535l-164,24v101h456V1385l-129-23L755,581V120L979,99V0H313V99l218,19ZM648,1600l-77,66l241,310l150-119q-26-36-64.5-74.5t-82.5-74t-86.5-64T650,1600h-2Z" />
      <glyph unicode="&#xde;" glyph-name="gid44" horiz-adv-x="1279" d="M245,118V1362L82,1387v99H635v-99l-176-25V1153q38,3 74.5,6.5t74,6.5t76.5,5t81,2q144,0 247-43.5T1170,999t55-219q0-152-64.5-250.5t-182-146T702,336q-55,0-98.5,1t-79,3T459,345V118L673,97V0H79V97l166,21ZM682,438q88,0 158,33.5T950.5,578T991,769q0,91-33,158.5T853.5,1031T667,1064q-59,0-113.5-6T459,1046V446q59-7 116.5-7.5T682,438Z" />
      <glyph unicode="&#xdf;" glyph-name="gid111" horiz-adv-x="1227" d="M734-22q-38,0-88.5,7.5T566,0V143q34-14 81-24t100-10q114,0 165,52.5T963,289q0,73-32,127t-79,99t-94.5,89T678,701.5T646,827q0,46 21,83t52,72t62,75t52,89.5T854,1262q0,99-46.5,148.5T667,1460t-164-56T394.5,1237.5T356,965V0H10V99l133,17V931q0,202 77,344.5t206,218T710,1569q101,0 180-29t124.5-87.5T1060,1303q0-69-23-118t-56-86.5T914.5,1029T858,963t-23-78q0-52 36-95t88.5-87t105-95.5t88.5-119T1189,329q0-86-33-151.5t-93.5-110t-144-67T734-22Z" />
      <glyph unicode="&#xe0;" glyph-name="gid66" horiz-adv-x="1072" d="M378-22q-90,0-166,35T89.5,119.5T43,300q0,101 54.5,171.5T246,585t213,64t248,23v71q0,90-19.5,142T619,959T479,981q-117,0-204.5-37T139,881L88,986q20,18 86.5,53.5t160.5,65T532,1134q141,0 223.5-40.5t118-127T909,741V102h118V13q-22-5-58.5-12t-77-12.5T817-17q-52,0-74,16T721,74v64q-25-25-74-63T529.5,7.5T378-22Zm87,137q53,0 121.5,31.5T707,223V567q-150-1-247-33T315.5,447.5T268,324q0-75 26-121t70.5-67T465,115ZM586,1289q-38,17-95,57.5T373.5,1439t-109,102.5T194,1627l151,128l322-399l-79-67h-2Z" />
      <glyph unicode="&#xe1;" glyph-name="gid63" horiz-adv-x="1072" d="M378-22q-90,0-166,35T89.5,119.5T43,300q0,101 54.5,171.5T246,585t213,64t248,23v71q0,90-19.5,142T619,959T479,981q-117,0-204.5-37T139,881L88,986q20,18 86.5,53.5t160.5,65T532,1134q141,0 223.5-40.5t118-127T909,741V102h118V13q-22-5-58.5-12t-77-12.5T817-17q-52,0-74,16T721,74v64q-25-25-74-63T529.5,7.5T378-22Zm87,137q53,0 121.5,31.5T707,223V567q-150-1-247-33T315.5,447.5T268,324q0-75 26-121t70.5-67T465,115Zm24,1174l-78,67l321,399l152-128q-21-35-70-85.5T704.5,1439T587,1346.5T491,1289h-2Z" />
      <glyph unicode="&#xe2;" glyph-name="gid64" horiz-adv-x="1072" d="M378-22q-90,0-166,35T89.5,119.5T43,300q0,101 54.5,171.5T246,585t213,64t248,23v71q0,90-19.5,142T619,959T479,981q-117,0-204.5-37T139,881L88,986q20,18 86.5,53.5t160.5,65T532,1134q141,0 223.5-40.5t118-127T909,741V102h118V13q-22-5-58.5-12t-77-12.5T817-17q-52,0-74,16T721,74v64q-25-25-74-63T529.5,7.5T378-22Zm87,137q53,0 121.5,31.5T707,223V567q-150-1-247-33T315.5,447.5T268,324q0-75 26-121t70.5-67T465,115ZM268,1253l-78,60l258,386H626l258-387l-79-59L537,1537L268,1253Z" />
      <glyph unicode="&#xe3;" glyph-name="gid68" horiz-adv-x="1072" d="M378-22q-90,0-166,35T89.5,119.5T43,300q0,101 54.5,171.5T246,585t213,64t248,23v71q0,90-19.5,142T619,959T479,981q-117,0-204.5-37T139,881L88,986q20,18 86.5,53.5t160.5,65T532,1134q141,0 223.5-40.5t118-127T909,741V102h118V13q-22-5-58.5-12t-77-12.5T817-17q-52,0-74,16T721,74v64q-25-25-74-63T529.5,7.5T378-22Zm87,137q53,0 121.5,31.5T707,223V567q-150-1-247-33T315.5,447.5T268,324q0-75 26-121t70.5-67T465,115ZM198,1339q21,99 77,155.5T411,1551q56,0 91-20.5t60-47.5t49-47.5t57-20.5q44-1 69,31t41,85l97-52q-20-99-76.5-156T661,1266q-54,0-88,20.5T514.5,1334T465,1381.5T404,1402q-44,0-69-31.5T294,1286l-96,53Z" />
      <glyph unicode="&#xe4;" glyph-name="gid65" horiz-adv-x="1072" d="M378-22q-90,0-166,35T89.5,119.5T43,300q0,101 54.5,171.5T246,585t213,64t248,23v71q0,90-19.5,142T619,959T479,981q-117,0-204.5-37T139,881L88,986q20,18 86.5,53.5t160.5,65T532,1134q141,0 223.5-40.5t118-127T909,741V102h118V13q-22-5-58.5-12t-77-12.5T817-17q-52,0-74,16T721,74v64q-25-25-74-63T529.5,7.5T378-22Zm87,137q53,0 121.5,31.5T707,223V567q-150-1-247-33T315.5,447.5T268,324q0-75 26-121t70.5-67T465,115ZM312,1307q-56,0-86,38t-30,91q0,57 33.5,102.5T328,1584h2q56,0 86-38t30-91q0-57-33-102.5T314,1307h-2Zm432,0q-56,0-86,38t-30,91q0,57 33,102.5t98,45.5h2q57,0 86.5-38t29.5-91q0-57-32.5-102.5T746,1307h-2Z" />
      <glyph unicode="&#xe5;" glyph-name="gid67" horiz-adv-x="1072" d="M378-22q-90,0-166,35T89.5,119.5T43,300q0,101 54.5,171.5T246,585t213,64t248,23v71q0,90-19.5,142T619,959T479,981q-117,0-204.5-37T139,881L88,986q20,18 86.5,53.5t160.5,65T532,1134q141,0 223.5-40.5t118-127T909,741V102h118V13q-22-5-58.5-12t-77-12.5T817-17q-52,0-74,16T721,74v64q-25-25-74-63T529.5,7.5T378-22Zm87,137q53,0 121.5,31.5T707,223V567q-150-1-247-33T315.5,447.5T268,324q0-75 26-121t70.5-67T465,115Zm71,1146q-114,0-185.5,68T280,1505t73.5,175.5T541,1748q113,0 183.5-67.5T795,1504q-1-108-72.5-175.5T536,1261Zm1,95q65,0 103.5,39T679,1503q0,70-38.5,109.5T538,1652q-65,0-103.5-39T396,1505t38.5-109T537,1356Z" />
      <glyph unicode="&#xe6;" glyph-name="gid69" horiz-adv-x="1679" d="M377-22q-89,0-165.5,35T89,118.5T43,296q0,102 55,173T247,584.5t212,65T702,672v47q-2,107-20,164t-66,79T475,984q-76,0-141-18T216,923t-92-45L74,980q18,17 63.5,42.5t108.5,51t136.5,43T529,1134q132,0 212-45.5T857,965q34,60 91,99t126.5,57.5T1217,1140q187,0 290-103t109-296q0-60-2.5-105T1603,556H908q0-96 23-176.5T998.5,240t109-91T1254,117q87,0 172,30t130,67l39-88q-36-37-99.5-71T1354-0.5T1194-22q-96,0-175.5,26t-139,75T781,197q-33-50-89.5-100.5T556,12T377-22ZM909,662h487q2,19 3,43t1,43q0,121-50,200t-170,79q-54,0-102.5-20.5t-86-64.5t-59-113.5T909,662ZM466,115q57,0 111,23t97.5,60.5T743,279q-22,63-31.5,137T702,573q-110-1-191.5-20.5T375,498.5T294.5,419T268,323q0-111 56.5-159.5T466,115Z" />
      <glyph unicode="&#xe7;" glyph-name="gid72" horiz-adv-x="1011" d="M570-22Q402-22 290,52.5t-167.5,203T66,544q-1,123 35,231T208,965t176,128.5T627,1140q68,0 125.5-11t101-25.5T925,1080L915,772H786L741,975q-3,17-27,29.5t-57,20t-67,7.5q-90,0-157-48.5T328,840T289,605q-1-124 23.5-216t69-152T486,147t131-30q61,0 115,13.5T830,164t75,41l38-81q-34-34-92-68T720.5,0T570-22ZM469-482q-38,0-79,8t-68,18l1,138q21-7 48.5-11t41.5-4q62,0 98,24.5T547-193q0,40-12.5,80T506-42.5T480,2l63,10L580,2q21-19 52.5-61t55-99T710-280q-1-73-31.5-117.5t-84-64.5T469-482Z" />
      <glyph unicode="&#xe8;" glyph-name="gid79" horiz-adv-x="1043" d="M557-22Q389-22 278.5,52t-165,205T59,559q0,132 38.5,239T206,981.5T371.5,1099T581,1140q187,0 290-103T980,741q0-60-2.5-105T967,556H279q2-96 24-176.5T368,240t106-91t146-32q84,0 170,30t131,67l39-88q-35-37-98.5-71T718.5-0.5T557-22ZM280,662H760q2,17 3.5,42t1.5,44q0,122-50.5,200.5T544,1027q-53,0-99-18t-81.5-60T307,836.5T280,662Zm341,627q-38,17-95,57.5T408.5,1439t-109,102.5T229,1627l151,128l322-399l-79-67h-2Z" />
      <glyph unicode="&#xe9;" glyph-name="gid76" horiz-adv-x="1043" d="M557-22Q389-22 278.5,52t-165,205T59,559q0,132 38.5,239T206,981.5T371.5,1099T581,1140q187,0 290-103T980,741q0-60-2.5-105T967,556H279q2-96 24-176.5T368,240t106-91t146-32q84,0 170,30t131,67l39-88q-35-37-98.5-71T718.5-0.5T557-22ZM280,662H760q2,17 3.5,42t1.5,44q0,122-50.5,200.5T544,1027q-53,0-99-18t-81.5-60T307,836.5T280,662Zm245,627l-78,67l321,399l152-128q-21-35-70-85.5T740.5,1439T623,1346.5T527,1289h-2Z" />
      <glyph unicode="&#xea;" glyph-name="gid77" horiz-adv-x="1043" d="M557-22Q389-22 278.5,52t-165,205T59,559q0,132 38.5,239T206,981.5T371.5,1099T581,1140q187,0 290-103T980,741q0-60-2.5-105T967,556H279q2-96 24-176.5T368,240t106-91t146-32q84,0 170,30t131,67l39-88q-35-37-98.5-71T718.5-0.5T557-22ZM280,662H760q2,17 3.5,42t1.5,44q0,122-50.5,200.5T544,1027q-53,0-99-18t-81.5-60T307,836.5T280,662Zm23,591l-78,60l258,386H661l258-387l-79-59L572,1537L303,1253Z" />
      <glyph unicode="&#xeb;" glyph-name="gid78" horiz-adv-x="1043" d="M557-22Q389-22 278.5,52t-165,205T59,559q0,132 38.5,239T206,981.5T371.5,1099T581,1140q187,0 290-103T980,741q0-60-2.5-105T967,556H279q2-96 24-176.5T368,240t106-91t146-32q84,0 170,30t131,67l39-88q-35-37-98.5-71T718.5-0.5T557-22ZM280,662H760q2,17 3.5,42t1.5,44q0,122-50.5,200.5T544,1027q-53,0-99-18t-81.5-60T307,836.5T280,662Zm67,645q-56,0-86,38t-30,91q0,57 33.5,102.5T363,1584h2q56,0 86-38t30-91q0-57-33-102.5T349,1307h-2Zm432,0q-56,0-86,38t-30,91q0,57 33,102.5t98,45.5h2q57,0 86.5-38t29.5-91q0-57-32.5-102.5T781,1307h-2Z" />
      <glyph unicode="&#xec;" glyph-name="gid89" horiz-adv-x="648" d="M67,0V99l162,17V956L79,991v108l310,36h4l46-35V114L598,99V0H67ZM375,1289q-38,17-95,57.5T162.5,1439t-109,102.5T-17,1627l151,128l322-399l-79-67h-2Z" />
      <glyph unicode="&#xed;" glyph-name="gid85" horiz-adv-x="648" d="M67,0V99l162,17V956L79,991v108l310,36h4l46-35V114L598,99V0H67ZM279,1289l-78,67l321,399l152-128q-21-35-70-85.5T494.5,1439T377,1346.5T281,1289h-2Z" />
      <glyph unicode="&#xee;" glyph-name="gid86" horiz-adv-x="648" d="M67,0V99l162,17V956L79,991v108l310,36h4l46-35V114L598,99V0H67ZM57,1253l-78,60l258,386H415l258-387l-79-59L326,1537L57,1253Z" />
      <glyph unicode="&#xef;" glyph-name="gid87" horiz-adv-x="648" d="M67,0V99l162,17V956L79,991v108l310,36h4l46-35V114L598,99V0H67Zm34,1307q-56,0-86,38t-30,91q0,57 33.5,102.5T117,1584h2q56,0 86-38t30-91q0-57-33-102.5T103,1307h-2Zm432,0q-56,0-86,38t-30,91q0,57 33,102.5t98,45.5h2q57,0 86.5-38t29.5-91q0-57-32.5-102.5T535,1307h-2Z" />
      <glyph unicode="&#xf0;" glyph-name="gid74" horiz-adv-x="1159" d="M565-22Q442-22 349.5,22.5T196,143.5T105,318T75,523q0,155 44.5,271T239,987t166.5,115T590,1140q72,0 124-11t87-28q-31,81-83,159.5t-124,147T430,1526l141,34L391,1338l-101,72l181,221l-18-115q-37,30-94,59t-112,51.5T160,1658l40,103q53-13 106-30t112-43t129-70l-113-29l163,216l97-78L539,1523l-10,107q129-71 233.5-169.5t178.5-222t113-269T1093,659q0-97-17.5-195t-55-185T921,124T771.5,17T565-22Zm8,109q75,0 129.5,33T793,220t52.5,168.5T862,629q0,77-6,145T842,892.5T826,968q-19,20-74,45.5T597,1039q-59,0-112-30.5T392,916T329.5,760.5T307,542q0-77 14-157t45-147.5t82-109T573,87Z" />
      <glyph unicode="&#xf1;" glyph-name="gid97" horiz-adv-x="1326" d="M209,116V956L66,991v109l285,35h6l42-35v-83l-2-50q44,39 112,78t147.5,65T814,1136q127,0 197.5-48T1111,938.5T1140,677V114l139-14V0H805V99l123,15V676q0,109-16.5,179.5T850,959.5T719,993q-53,0-108-18.5t-104.5-46T421,873V116L557,99V0H82V99l127,17ZM320,1339q21,99 77,155.5T533,1551q56,0 91-20.5t60-47.5t49-47.5t57-20.5q44-1 69,31t41,85l97-52q-20-99-76.5-156T783,1266q-54,0-88,20.5T636.5,1334T587,1381.5T526,1402q-44,0-69-31.5T416,1286l-96,53Z" />
      <glyph unicode="&#xf2;" glyph-name="gid102" horiz-adv-x="1167" d="M66,559q0,140 44,248.5T229.5,990t170,112T595,1140q175,0 287-77t165.5-208T1101,559q0-141-44-249.5T937.5,127T767.5,15.5T572-22Q441-22 345,22T187.5,145T96,329.5T66,559ZM585,92q90,0 153.5,50t97,150.5T869,544q0,103-15.5,191T805,888.5T717.5,990T585,1026q-91,0-155-50T332,826T298,574q0-104 16-192t50-153t89-101T585,92Zm48,1197q-38,17-95,57.5T420.5,1439t-109,102.5T241,1627l151,128l322-399l-79-67h-2Z" />
      <glyph unicode="&#xf3;" glyph-name="gid99" horiz-adv-x="1167" d="M66,559q0,140 44,248.5T229.5,990t170,112T595,1140q175,0 287-77t165.5-208T1101,559q0-141-44-249.5T937.5,127T767.5,15.5T572-22Q441-22 345,22T187.5,145T96,329.5T66,559ZM585,92q90,0 153.5,50t97,150.5T869,544q0,103-15.5,191T805,888.5T717.5,990T585,1026q-91,0-155-50T332,826T298,574q0-104 16-192t50-153t89-101T585,92ZM536,1289l-78,67l321,399l152-128q-21-35-70-85.5T751.5,1439T634,1346.5T538,1289h-2Z" />
      <glyph unicode="&#xf4;" glyph-name="gid100" horiz-adv-x="1167" d="M66,559q0,140 44,248.5T229.5,990t170,112T595,1140q175,0 287-77t165.5-208T1101,559q0-141-44-249.5T937.5,127T767.5,15.5T572-22Q441-22 345,22T187.5,145T96,329.5T66,559ZM585,92q90,0 153.5,50t97,150.5T869,544q0,103-15.5,191T805,888.5T717.5,990T585,1026q-91,0-155-50T332,826T298,574q0-104 16-192t50-153t89-101T585,92ZM315,1253l-78,60l258,386H673l258-387l-79-59L584,1537L315,1253Z" />
      <glyph unicode="&#xf5;" glyph-name="gid104" horiz-adv-x="1167" d="M66,559q0,140 44,248.5T229.5,990t170,112T595,1140q175,0 287-77t165.5-208T1101,559q0-141-44-249.5T937.5,127T767.5,15.5T572-22Q441-22 345,22T187.5,145T96,329.5T66,559ZM585,92q90,0 153.5,50t97,150.5T869,544q0,103-15.5,191T805,888.5T717.5,990T585,1026q-91,0-155-50T332,826T298,574q0-104 16-192t50-153t89-101T585,92ZM245,1339q21,99 77,155.5T458,1551q56,0 91-20.5t60-47.5t49-47.5t57-20.5q44-1 69,31t41,85l97-52q-20-99-76.5-156T708,1266q-54,0-88,20.5T561.5,1334T512,1381.5T451,1402q-44,0-69-31.5T341,1286l-96,53Z" />
      <glyph unicode="&#xf6;" glyph-name="gid101" horiz-adv-x="1167" d="M66,559q0,140 44,248.5T229.5,990t170,112T595,1140q175,0 287-77t165.5-208T1101,559q0-141-44-249.5T937.5,127T767.5,15.5T572-22Q441-22 345,22T187.5,145T96,329.5T66,559ZM585,92q90,0 153.5,50t97,150.5T869,544q0,103-15.5,191T805,888.5T717.5,990T585,1026q-91,0-155-50T332,826T298,574q0-104 16-192t50-153t89-101T585,92ZM359,1307q-56,0-86,38t-30,91q0,57 33.5,102.5T375,1584h2q56,0 86-38t30-91q0-57-33-102.5T361,1307h-2Zm432,0q-56,0-86,38t-30,91q0,57 33,102.5t98,45.5h2q57,0 86.5-38t29.5-91q0-57-32.5-102.5T793,1307h-2Z" />
      <glyph unicode="&#xf7;" glyph-name="gid245" horiz-adv-x="1338" d="M674,923q-48,0-86.5,34T549,1046q0,59 46,99.5T696,1186q65,0 95.5-37t30.5-86q0-64-44-102T674,923Zm450-209V566H214V714h910ZM532,223q0,61 46,100.5T681,363q64,0 95-36.5T807,241q0-64-45-101.5T657,102q-48,0-86.5,32.5T532,223Z" />
      <glyph unicode="&#xf8;" glyph-name="gid103" horiz-adv-x="1167" d="M293-161l-74,37L305,43Q182,114 124,250.5T66,559q0,140 44,248.5T229.5,990t170,112.5T595,1140q54-1 102-9t91-23l85,173l75-37l-83-171q122-73 179-208t57-306q0-141-44-249.5T937.5,127T767.5,15.5T572-22q-54,0-101.5,7.5T381,8L293-161Zm95,365L560,570L730,977q-29,24-65,36.5T585,1026q-91,0-155.5-50T331,826T297,574q0-113 22-209.5T388,204ZM585,92q90,0 153.5,50t97,150.5T869,544q0,109-19.5,203T786,905L623,548L446,137q28-22 62.5-33.5T585,92Z" />
      <glyph unicode="&#xf9;" glyph-name="gid117" horiz-adv-x="1259" d="M982-19q-55,0-82.5,21T872,76v69q-37-38-94-76.5T653,4T514-22Q326-22 247,79.5T168,409V987L57,1019v90l281,26h2l38-26V423q0-109 17-176.5T456,148t126-31q58,0 108.5,19t91,45T848,230V987l-145,33v89l305,26h3l46-26V102h119l-1-91q-35-8-82.5-19T982-19ZM646,1289q-38,17-95,57.5T433.5,1439t-109,102.5T254,1627l151,128l322-399l-79-67h-2Z" />
      <glyph unicode="&#xfa;" glyph-name="gid114" horiz-adv-x="1259" d="M982-19q-55,0-82.5,21T872,76v69q-37-38-94-76.5T653,4T514-22Q326-22 247,79.5T168,409V987L57,1019v90l281,26h2l38-26V423q0-109 17-176.5T456,148t126-31q58,0 108.5,19t91,45T848,230V987l-145,33v89l305,26h3l46-26V102h119l-1-91q-35-8-82.5-19T982-19ZM549,1289l-78,67l321,399l152-128q-21-35-70-85.5T764.5,1439T647,1346.5T551,1289h-2Z" />
      <glyph unicode="&#xfb;" glyph-name="gid115" horiz-adv-x="1259" d="M982-19q-55,0-82.5,21T872,76v69q-37-38-94-76.5T653,4T514-22Q326-22 247,79.5T168,409V987L57,1019v90l281,26h2l38-26V423q0-109 17-176.5T456,148t126-31q58,0 108.5,19t91,45T848,230V987l-145,33v89l305,26h3l46-26V102h119l-1-91q-35-8-82.5-19T982-19ZM328,1253l-78,60l258,386H686l258-387l-79-59L597,1537L328,1253Z" />
      <glyph unicode="&#xfc;" glyph-name="gid116" horiz-adv-x="1259" d="M982-19q-55,0-82.5,21T872,76v69q-37-38-94-76.5T653,4T514-22Q326-22 247,79.5T168,409V987L57,1019v90l281,26h2l38-26V423q0-109 17-176.5T456,148t126-31q58,0 108.5,19t91,45T848,230V987l-145,33v89l305,26h3l46-26V102h119l-1-91q-35-8-82.5-19T982-19ZM372,1307q-56,0-86,38t-30,91q0,57 33.5,102.5T388,1584h2q56,0 86-38t30-91q0-57-33-102.5T374,1307h-2Zm432,0q-56,0-86,38t-30,91q0,57 33,102.5t98,45.5h2q57,0 86.5-38t29.5-91q0-57-32.5-102.5T806,1307h-2Z" />
      <glyph unicode="&#xfd;" glyph-name="gid122" horiz-adv-x="1164" d="M272-502q-30,0-56.5,4.5T174-486v180q13-8 41-12.5t58-4.5q41,0 79.5,13t76,47.5t74,98.5T575,0H479L99,990L7,1015v96H491v-96L336,991L533,402l91-290l85,292L888,992l-135,23v96h404v-96l-102-23Q994,803 943.5,650.5T853,380T784.5,177.5T737,41.5T710-30Q649-183 592-288.5T460-448T272-502ZM537,1289l-78,67l321,399l152-128q-21-35-70-85.5T752.5,1439T635,1346.5T539,1289h-2Z" />
      <glyph unicode="&#xfe;" glyph-name="gid107" horiz-adv-x="1196" d="M10-484v91l147,23V1494L-6,1515v86l321,37h4l46-31V1006q34,33 82,64t110,50.5T692,1140q114,0 213.5-56t161-176T1128,595q0-129-40-241T972.5,157.5t-183-132T549-22q-53,0-100.5,5T359-4l4-129l2-237l218-23v-91H10ZM562,86q97,0 173,52T855.5,296T902,565q2,115-21,197T817.5,896t-94,76.5T609,997q-55,0-103-18.5t-84-45T365,884V149q13-30 71.5-46.5T562,86Z" />
      <glyph unicode="&#xff;" glyph-name="gid123" horiz-adv-x="1164" d="M272-502q-30,0-56.5,4.5T174-486v180q13-8 41-12.5t58-4.5q41,0 79.5,13t76,47.5t74,98.5T575,0H479L99,990L7,1015v96H491v-96L336,991L533,402l91-290l85,292L888,992l-135,23v96h404v-96l-102-23Q994,803 943.5,650.5T853,380T784.5,177.5T737,41.5T710-30Q649-183 592-288.5T460-448T272-502Zm88,1809q-56,0-86,38t-30,91q0,57 33.5,102.5T376,1584h2q56,0 86-38t30-91q0-57-33-102.5T362,1307h-2Zm432,0q-56,0-86,38t-30,91q0,57 33,102.5t98,45.5h2q57,0 86.5-38t29.5-91q0-57-32.5-102.5T794,1307h-2Z" />
      <glyph unicode="&#x2013;" glyph-name="gid202" horiz-adv-x="1586" d="M1406,714V569H180V714H1406Z" />
      <glyph unicode="&#x2014;" glyph-name="gid203" horiz-adv-x="2282" d="M2102,713V570H180V713H2102Z" />
      <glyph unicode="&#x2018;" glyph-name="gid215" horiz-adv-x="567" d="M302,977q-47,0-91,38.5T139,1117t-28,138q0,89 26.5,154.5T205,1522t87,79t84,51l53-48v-18q-34-23-69-56t-59.5-81T276,1332q0-51 21-80.5t47.5-50.5t47.5-47t21-70q0-48-32-77.5T302,977Z" />
      <glyph unicode="&#x2019;" glyph-name="gid216" horiz-adv-x="567" d="M191,977l-53,48v18q34,24 69.5,57t59.5,81t24,116q0,51-20.5,80.5T223,1428t-48,47t-21,71q0,47 32,76.5t79,29.5t91-38t72.5-101.5T457,1374q0-88-26.5-154t-68-113t-87-78.5T191,977Z" />
      <glyph unicode="&#x201a;" glyph-name="gid211" horiz-adv-x="567" d="M191-335l-53,48v18q34,24 69.5,57T267-131T291-15q0,51-20.5,80.5T223,116t-48,47t-21,71q0,47 32,76.5T265,340t91-38t72.5-101.5T457,62q0-88-26.5-154t-68-113t-87-78.5T191-335Z" />
      <glyph unicode="&#x201c;" glyph-name="gid213" horiz-adv-x="995" d="M302,977q-47,0-91,38.5T139,1117t-28,138q0,89 26.5,154.5T205,1522t87,79t84,51l53-48v-18q-34-23-69-56t-59.5-81T276,1332q0-51 21-80.5t47.5-50.5t47.5-47t21-70q0-48-32-77.5T302,977Zm427,0q-47,0-91,38.5T566,1117t-28,138q0,89 26.5,154.5T632,1522t87,79t84,51l53-48v-18q-34-23-69-56t-59.5-81T703,1332q0-51 21-80.5t47.5-50.5t47.5-47t21-70q0-48-32-77.5T729,977Z" />
      <glyph unicode="&#x201d;" glyph-name="gid214" horiz-adv-x="995" d="M191,977l-53,48v18q34,24 69.5,57t59.5,81t24,116q0,51-20.5,80.5T223,1428t-48,47t-21,71q0,47 32,76.5t79,29.5t91-38t72.5-101.5T457,1374q0-88-26.5-154t-68-113t-87-78.5T191,977Zm427,0l-53,48v18q34,24 69.5,57t59.5,81t24,116q0,51-20.5,80.5T650,1428t-48,47t-21,71q0,47 32,76.5t79,29.5t91-38t72.5-101.5T884,1374q0-88-26.5-154t-68-113t-87-78.5T618,977Z" />
      <glyph unicode="&#x201e;" glyph-name="gid212" horiz-adv-x="995" d="M191-436l-53,48v18q34,24 69.5,57T267-232t24,116q0,51-20.5,80.5T223,15T175,62t-21,71q0,47 32,76.5T265,239t91-38T428.5,99.5T457-39q0-88-26.5-154t-68-113t-87-78.5T191-436Zm427,0l-53,48v18q34,24 69.5,57T694-232t24,116q0,51-20.5,80.5T650,15T602,62t-21,71q0,47 32,76.5T692,239t91-38T855.5,99.5T884-39q0-88-26.5-154t-68-113t-87-78.5T618-436Z" />
      <glyph unicode="&#x2022;" glyph-name="gid193" horiz-adv-x="851" d="M418,476q-53,0-93.5,27.5t-65,72.5T234,673q0,58 29,102.5t75,70T436,871q77,0 129-55.5T617,675q0-56-28.5-101t-74-71.5T418,476Z" />
      <glyph unicode="&#x2039;" glyph-name="gid219" horiz-adv-x="808" d="M576,1102l100-62L335,599L676,172L576,104L112,529V667l464,435Z" />
      <glyph unicode="&#x203a;" glyph-name="gid220" horiz-adv-x="808" d="M233,1102L696,667V529L233,104L132,172L474,599L132,1040l101,62Z" />
    </font>
</defs>
</svg>
